<?xml version="1.0" encoding="UTF-8"?>
<!DOCTYPE svg PUBLIC "-//W3C//DTD SVG 1.1//EN" "http://www.w3.org/Graphics/SVG/1.1/DTD/svg11.dtd">
<svg version="1.1" xmlns="http://www.w3.org/2000/svg" xmlns:xlink="http://www.w3.org/1999/xlink" width="556" height="333"  xml:space="preserve">
    <!-- http://svgeneration.com/generate/Wood-Grain?base-color=e8d5d0&grain-color=d9a17b&grain-weight=1.5&turbulence-weight=0.15 -->
    <defs>
        <filter y='0' color-interpolation-filters='sRGB' id='noise'>
            <!-- <feTurbulence type='fractalNoise' baseFrequency='.8 0' result='out1' numOctaves='1'/> -->
            <feTurbulence type='fractalNoise' baseFrequency='0 .8' result='out1' numOctaves='1'/>
            <feColorMatrix type='saturate' in='out1' result='out2' values='0'/>
            <feComposite operator='arithmetic' k1='0' k2='0.15' k3='0' k4='0' in='out2' in2='out1'/>
        </filter>
    </defs>
    <rect fill='#e8d5d0' fill-opacity='1'     x='0'   y='0'   width='100%' height='100%'/>
    <rect fill='#d9a17b' fill-opacity='0.15'  x='-5%'  y='5%' width='110%'  height='10%'/>
    <rect fill='#d9a17b' fill-opacity='0.06'  x='-5%'  y='6%' width='110%'  height='10%'/>
    <rect fill='#d9a17b' fill-opacity='0.06'  x='-5%'  y='7%' width='110%'  height='14%'/>
    <rect fill='#d9a17b' fill-opacity='0.06'  x='-5%'  y='9%' width='110%'  height='20%'/>
    <rect fill='#d9a17b' fill-opacity='0.06'  x='-5%' y='11%' width='110%'  height='10%'/>
    <rect fill='#d9a17b' fill-opacity='0.12'  x='-5%' y='55%' width='110%'  height='40%'/>
    <rect fill='#d9a17b' fill-opacity='0.045' x='-5%' y='62%' width='110%'  height='35%'/>
    <rect fill='#d9a17b' fill-opacity='0.105' x='-5%' y='38%' width='110%'  height='20%'/>
    <rect fill='#d9a17b' fill-opacity='0.045' x='-5%' y='85%' width='110%'  height='40%'/>
    <rect fill='#d9a17b' fill-opacity='0.075' x='-5%' y='52%' width='110%'  height='40%'/>
    <rect style='filter:url(#noise)' x='0' y='0' width='100%' height='100%'/>
    <g stroke="rgb(129, 129, 129)" stroke-width="2" stroke-linecap="round" stroke-linejoin="round" stroke-miterlimit="4" fill="none">
        <path id="court" d="M 0.25,0.26 L 555.75,0.26 555.75,332.32 0.25,332.32 0.25,0.26 Z M 0.25,0.26" />
        <path id="duke_3pt" d="M 555.75,299.67 C 512.07,304.54 466.45,291.75 432.92,261.32 375.1,208.83 375.1,123.74 432.92,71.26 466.45,40.82 512.07,28.04 555.75,32.9 L 555.75,299.67 Z M 555.75,299.67" />
        <path id="unc_3pt" d="M 0.25,299.67 C 43.93,304.54 89.55,291.75 123.08,261.32 180.9,208.83 180.9,123.74 123.08,71.26 89.55,40.82 43.93,28.04 0.25,32.9 L 0.25,299.67 Z M 0.25,299.67" />
        <path id="center_line" d="M 280.1,0.26 L 280.1,332.32" />
        <path id="unc_lane" fill="rgb(138, 153, 203)" d="M 0.25,130.9 L 123.81,130.9 123.81,201.67 0.25,201.67 0.25,130.9 Z M 0.25,130.9" />
        <path id="duke_lane" fill="rgb(4, 10, 52)" d="M 432.19,130.9 L 555.75,130.9 555.75,201.67 432.19,201.67 432.19,130.9 Z M 432.19,130.9" />
        <path id="unc_lane_circle" d="M 149.2,141.27 C 162.57,155.09 162.57,177.49 149.2,191.31 135.82,205.13 114.14,205.13 100.77,191.31 87.39,177.49 87.39,155.09 100.77,141.27 114.14,127.45 135.82,127.45 149.2,141.27 Z M 149.2,141.27" />
        <path id="duke_lane_circle" d="M 456.41,141.27 C 469.78,155.09 469.78,177.49 456.41,191.31 443.03,205.13 421.35,205.13 407.98,191.31 394.6,177.49 394.6,155.09 407.98,141.27 421.35,127.45 443.03,127.45 456.41,141.27 Z M 456.41,141.27" />
        <path id="center_circle" d="M 312.62,134.35 C 330.59,152.55 330.59,182.06 312.62,200.27 294.66,218.47 265.54,218.47 247.57,200.27 229.61,182.06 229.61,152.55 247.57,134.35 265.54,116.15 294.66,116.15 312.62,134.35 Z M 312.62,134.35" />
    </g>
</svg>
