<?xml version="1.0" encoding="UTF-8"?>
<!DOCTYPE svg PUBLIC "-//W3C//DTD SVG 1.1//EN" "http://www.w3.org/Graphics/SVG/1.1/DTD/svg11.dtd">
<svg version="1.1" xmlns="http://www.w3.org/2000/svg" xmlns:xlink="http://www.w3.org/1999/xlink" width="640" height="296"  xml:space="preserve">
    <path id="bezier" stroke="rgb(77, 115, 0)" stroke-miterlimit="4" fill="rgb(126, 189, 0)" d="M 138.89,95.89 C 163.55,88.21 162.87,76.28 136.84,68.84 110.11,61.2 66.78,61.2 40.05,68.84 13.32,76.48 13.32,88.86 40.05,96.49 61.07,102.5 92.37,103.78 117.78,100.34 L 87.33,80.8 138.89,95.89 Z M 138.89,95.89" />
    <path id="bezier2" stroke="rgb(77, 115, 0)" stroke-miterlimit="4" fill="rgb(126, 189, 0)" d="M 325.44,95.89 C 350.11,88.21 349.43,76.28 323.4,68.84 296.67,61.2 253.33,61.2 226.6,68.84 199.87,76.48 199.87,88.86 226.6,96.49 247.63,102.5 278.93,103.78 304.34,100.34 L 273.88,80.8 325.44,95.89 Z M 325.44,95.89" />
    <path id="bezier3" stroke="rgb(77, 115, 0)" stroke-miterlimit="4" fill="rgb(126, 189, 0)" d="M 522.11,95.89 C 546.78,88.21 546.09,76.28 520.06,68.84 493.33,61.2 450,61.2 423.27,68.84 396.54,76.48 396.54,88.86 423.27,96.49 444.29,102.5 475.59,103.78 501,100.34 L 470.55,80.8 522.11,95.89 Z M 522.11,95.89" />
    <path id="bezier4" stroke="rgb(77, 115, 0)" stroke-miterlimit="4" fill="rgb(126, 189, 0)" d="M 341.16,265.81 C 365.83,258.14 365.15,246.2 339.12,238.76 312.39,231.13 269.05,231.13 242.32,238.76 215.6,246.4 215.6,258.78 242.32,266.42 263.35,272.43 294.65,273.71 320.06,270.26 L 289.61,250.72 341.16,265.81 Z M 341.16,265.81" />
    <path id="bezier5" stroke="rgb(77, 115, 0)" stroke-miterlimit="4" fill="rgb(126, 189, 0)" d="M 146.11,265.81 C 170.78,258.14 170.09,246.2 144.06,238.76 117.33,231.13 74,231.13 47.27,238.76 20.54,246.4 20.54,258.78 47.27,266.42 68.29,272.43 99.59,273.71 125,270.26 L 94.55,250.72 146.11,265.81 Z M 146.11,265.81" />
    <path id="bezier6" stroke="rgb(77, 115, 0)" stroke-miterlimit="4" fill="rgb(0, 121, 121)" d="M 127.09,234.64 C 131.53,230.32 157.67,206.34 188.22,209.16 221.77,212.25 273.76,245.68 273.76,245.68 L 273.76,245.68 C 273.76,245.68 228.47,198.92 191.66,194.32 156.94,189.98 121.2,222.12 117.26,225.78 L 113.98,222.83 112.18,240.94 130,237.25 127.09,234.64 Z M 127.09,234.64" />
    <path id="bezier12" stroke="rgb(77, 115, 0)" stroke-miterlimit="4" fill="rgb(126, 189, 0)" d="M 476.37,256.65 C 483.93,254.29 483.72,250.63 475.74,248.35 467.54,246 454.24,246 446.04,248.35 437.84,250.69 437.84,254.49 446.04,256.83 452.49,258.68 462.09,259.07 469.89,258.01 L 460.55,252.02 476.37,256.65 Z M 476.37,256.65" />
    <path id="bezier13" stroke="rgb(77, 115, 0)" stroke-miterlimit="4" fill="rgb(126, 189, 0)" d="M 488.37,268.65 C 495.93,266.29 495.72,262.63 487.74,260.35 479.54,258 466.24,258 458.04,260.35 449.84,262.69 449.84,266.49 458.04,268.83 464.49,270.68 474.09,271.07 481.89,270.01 L 472.55,264.02 488.37,268.65 Z M 488.37,268.65" />
    <path id="bezier14" stroke="rgb(77, 115, 0)" stroke-miterlimit="4" fill="rgb(126, 189, 0)" d="M 506.37,244.65 C 513.93,242.29 513.72,238.63 505.74,236.35 497.54,234 484.24,234 476.04,236.35 467.84,238.69 467.84,242.49 476.04,244.83 482.49,246.68 492.09,247.07 499.89,246.01 L 490.55,240.02 506.37,244.65 Z M 506.37,244.65" />
    <path id="bezier15" stroke="rgb(77, 115, 0)" stroke-miterlimit="4" fill="rgb(126, 189, 0)" d="M 530.37,263.76 C 537.93,261.4 537.72,257.74 529.74,255.46 521.54,253.12 508.24,253.12 500.04,255.46 491.84,257.8 491.84,261.6 500.04,263.94 506.49,265.79 516.09,266.18 523.89,265.12 L 514.55,259.13 530.37,263.76 Z M 530.37,263.76" />
    <path id="bezier16" stroke="rgb(77, 115, 0)" stroke-miterlimit="4" fill="rgb(126, 189, 0)" d="M 534.59,249.98 C 542.16,247.63 541.95,243.96 533.96,241.68 525.76,239.34 512.46,239.34 504.26,241.68 496.06,244.02 496.06,247.82 504.26,250.17 510.71,252.01 520.32,252.4 528.11,251.35 L 518.77,245.35 534.59,249.98 Z M 534.59,249.98" />
    <path id="bezier17" stroke="rgb(77, 115, 0)" stroke-miterlimit="4" fill="rgb(126, 189, 0)" d="M 452.81,249.98 C 460.38,247.63 460.17,243.96 452.18,241.68 443.98,239.34 430.69,239.34 422.48,241.68 414.28,244.02 414.28,247.82 422.48,250.17 428.93,252.01 438.54,252.4 446.33,251.35 L 436.99,245.35 452.81,249.98 Z M 452.81,249.98" />
    <path id="bezier18" stroke="rgb(77, 115, 0)" stroke-miterlimit="4" fill="rgb(126, 189, 0)" d="M 562.41,261.98 C 569.98,259.63 569.77,255.96 561.78,253.68 553.58,251.34 540.29,251.34 532.08,253.68 523.88,256.02 523.88,259.82 532.08,262.17 538.53,264.01 548.14,264.4 555.93,263.35 L 546.59,257.35 562.41,261.98 Z M 562.41,261.98" />
    <path id="bezier7" stroke="rgb(13, 148, 148)" stroke-miterlimit="4" fill="rgb(0, 121, 121)" d="M 238.14,62.2 C 233.93,57.66 209.08,32.35 178.43,33.56 144.76,34.89 91.1,65.56 91.1,65.56 L 91.1,65.56 C 91.1,65.56 138.76,21.23 175.76,18.56 210.67,16.05 244.68,50.01 248.42,53.87 L 251.85,51.1 252.7,69.28 235.1,64.66 238.14,62.2 Z M 238.14,62.2" />
    <path id="bezier8" stroke="rgb(13, 148, 148)" stroke-miterlimit="4" fill="rgb(0, 121, 121)" d="M 442.61,62.2 C 438.41,57.66 413.56,32.35 382.9,33.56 349.24,34.89 295.57,65.56 295.57,65.56 L 295.57,65.56 C 295.57,65.56 343.24,21.23 380.24,18.56 415.14,16.05 449.15,50.01 452.9,53.87 L 456.32,51.1 457.18,69.28 439.57,64.66 442.61,62.2 Z M 442.61,62.2" />
    <path id="bezier9" stroke="rgb(13, 148, 148)" stroke-miterlimit="4" fill="rgb(0, 121, 121)" d="M 570.81,218.77 C 574.81,214.06 596.98,186.36 592.11,156.07 586.77,122.8 549.91,73.18 549.91,73.18 L 549.91,73.18 C 549.91,73.18 599.62,115.22 606.69,151.63 613.35,185.99 583.69,223.81 580.31,227.99 L 583.47,231.06 565.52,234.08 568,216.05 570.81,218.77 Z M 570.81,218.77" />
    <path id="bezier10" stroke="rgb(13, 148, 148)" stroke-miterlimit="4" fill="rgb(0, 121, 121)" d="M 582.36,231.22 C 586.37,226.5 608.53,198.8 603.67,168.52 598.32,135.25 561.47,85.63 561.47,85.63 L 561.47,85.63 C 561.47,85.63 611.18,127.66 618.24,164.08 624.91,198.43 595.24,236.26 591.86,240.43 L 595.03,243.5 577.08,246.52 579.56,228.49 582.36,231.22 Z M 582.36,231.22" />
    <path id="bezier11" stroke="rgb(13, 148, 148)" stroke-miterlimit="4" fill="rgb(0, 121, 121)" d="M 593.92,243.66 C 597.92,238.95 620.09,211.25 615.22,180.96 609.88,147.69 573.02,98.07 573.02,98.07 L 573.02,98.07 C 573.02,98.07 622.73,140.1 629.8,176.52 636.46,210.87 606.8,248.7 603.42,252.88 L 606.58,255.95 588.63,258.97 591.11,240.94 593.92,243.66 Z M 593.92,243.66" />
    <path id="bezier19" stroke="rgb(13, 148, 148)" stroke-miterlimit="4" fill="rgb(0, 121, 121)" d="M 341.58,234.64 C 346.02,230.32 372.16,206.34 402.71,209.16 436.26,212.25 488.25,245.68 488.25,245.68 L 488.25,245.68 C 488.25,245.68 442.97,198.92 406.16,194.32 371.43,189.98 335.69,222.12 331.75,225.78 L 328.47,222.83 326.67,240.94 344.49,237.25 341.58,234.64 Z M 341.58,234.64" />
    <rect id="rectangle2" stroke="none" fill="none" x="28" y="110" width="176" height="24" />
    <text fill="rgb(68, 68, 68)" font-family="Varela, sans-serif" font-size="12" x="28" y="110">
        <tspan x="28" y="122">Request List of Regions</tspan>
    </text>
    <rect id="rectangle3" stroke="none" fill="none" x="215" y="110" width="188" height="24" />
    <text fill="rgb(68, 68, 68)" font-family="Varela, sans-serif" font-size="12" x="215" y="110">
        <tspan x="215" y="122">Process List of Regions</tspan>
    </text>
    <rect id="rectangle4" stroke="none" fill="none" x="417" y="110" width="172" height="24" />
    <text fill="rgb(68, 68, 68)" font-family="Varela, sans-serif" font-size="12" x="417" y="110">
        <tspan x="417" y="122">Request Region Data</tspan>
    </text>
    <rect id="rectangle5" stroke="none" fill="none" x="438" y="277" width="202" height="18" />
    <text fill="rgb(68, 68, 68)" font-family="Varela, sans-serif" font-size="12" x="438" y="277">
        <tspan x="438" y="289">Process Region Data</tspan>
    </text>
    <rect id="rectangle6" stroke="none" fill="none" x="61" y="277" width="144" height="17" />
    <text fill="rgb(68, 68, 68)" font-family="Varela, sans-serif" font-size="12" x="61" y="277">
        <tspan x="61" y="289">Create Chart</tspan>
    </text>
    <rect id="rectangle7" stroke="none" fill="none" x="106" y="0" width="168" height="24" />
    <text fill="rgb(68, 68, 68)" font-family="Varela, sans-serif" font-size="12" x="106" y="0">
        <tspan x="106" y="12">deferredRegionsRequest</tspan>
    </text>
    <rect id="rectangle8" stroke="none" fill="none" x="308.39" y="0.35" width="192" height="24" />
    <text fill="rgb(68, 68, 68)" font-family="Varela, sans-serif" font-size="12" x="308.39" y="0.35">
        <tspan x="308.39" y="12.35">deferredRegionsAvailable</tspan>
    </text>
    <rect id="rectangle10" stroke="none" fill="none" x="472" y="131" width="106" height="24" />
    <text fill="rgb(68, 68, 68)" font-family="Varela, sans-serif" font-size="12" x="528.79" y="131">
        <tspan x="528.79" y="143">deferred</tspan>
    </text>
    <rect id="rectangle11" stroke="none" fill="none" x="481" y="146" width="97" height="24" />
    <text fill="rgb(68, 68, 68)" font-family="Varela, sans-serif" font-size="12" x="504.13" y="146">
        <tspan x="504.13" y="158">DataRequest</tspan>
    </text>
    <rect id="rectangle12" stroke="none" fill="none" x="511" y="171" width="67" height="24" />
    <text fill="rgb(68, 68, 68)" font-family="Varela, sans-serif" font-size="12" x="528.79" y="171">
        <tspan x="528.79" y="183">deferred</tspan>
    </text>
    <rect id="rectangle13" stroke="none" fill="none" x="488" y="186" width="90" height="24" />
    <text fill="rgb(68, 68, 68)" font-family="Varela, sans-serif" font-size="12" x="499.92" y="186">
        <tspan x="499.92" y="198">DataAvailable</tspan>
    </text>
    <rect id="rectangle15" stroke="none" fill="none" x="119.12" y="175.02" width="216" height="24" />
    <text fill="rgb(68, 68, 68)" font-family="Varela, sans-serif" font-size="12" x="119.12" y="175.02">
        <tspan x="119.12" y="187.02">deferredChartDataAvailable</tspan>
    </text>
    <rect id="rectangle17" stroke="none" fill="none" x="341.6" y="175.02" width="192" height="24" />
    <text fill="rgb(68, 68, 68)" font-family="Varela, sans-serif" font-size="12" x="341.6" y="175.02">
        <tspan x="341.6" y="187.02">deferredAllDataAvailable</tspan>
    </text>
    <rect id="rectangle19" stroke="none" fill="none" x="242" y="277" width="204" height="17" />
    <text fill="rgb(68, 68, 68)" font-family="Varela, sans-serif" font-size="12" x="242" y="277">
        <tspan x="242" y="289">Create Chart Data</tspan>
    </text>
</svg>
