<?xml version="1.0" encoding="UTF-8"?>
<!DOCTYPE svg PUBLIC "-//W3C//DTD SVG 1.1//EN" "http://www.w3.org/Graphics/SVG/1.1/DTD/svg11.dtd">
<svg version="1.1" xmlns="http://www.w3.org/2000/svg" xmlns:xlink="http://www.w3.org/1999/xlink" width="630" height="315"  xml:space="preserve">
    <defs>
        <linearGradient id="obj_Gradient-bezier11" x1="205.91" y1="131.64" x2="183.02" y2="171.29" gradientUnits="userSpaceOnUse" >
            <stop offset="0" stop-color="rgb(0, 0, 0)" stop-opacity="0" />
            <stop offset="0.39" stop-color="rgb(0, 0, 0)" stop-opacity="0" />
            <stop offset="1" stop-color="rgb(0, 0, 0)" stop-opacity="0.5" />
        </linearGradient>
        <linearGradient id="obj_Gradient_2-bezier12" x1="169.93" y1="157.6" x2="194.47" y2="157.6" gradientUnits="userSpaceOnUse" >
            <stop offset="0" stop-color="rgb(123, 0, 0)" stop-opacity="1" />
            <stop offset="1" stop-color="rgb(165, 0, 0)" stop-opacity="1" />
        </linearGradient>
        <linearGradient id="obj_Gradient_3-bezier14" x1="158.49" y1="159.02" x2="181.38" y2="119.38" gradientUnits="userSpaceOnUse" >
            <stop offset="0" stop-color="rgb(165, 0, 0)" stop-opacity="1" />
            <stop offset="1" stop-color="rgb(247, 21, 21)" stop-opacity="1" />
        </linearGradient>
        <linearGradient id="obj_Gradient_4-bezier16" x1="168.7" y1="138.49" x2="146.63" y2="176.71" gradientUnits="userSpaceOnUse" >
            <stop offset="0" stop-color="rgb(254, 76, 76)" stop-opacity="1" />
            <stop offset="1" stop-color="rgb(254, 76, 76)" stop-opacity="1" />
        </linearGradient>
        <linearGradient id="obj_Gradient_5-bezier18" x1="324.91" y1="131.64" x2="302.02" y2="171.29" gradientUnits="userSpaceOnUse" >
            <stop offset="0" stop-color="rgb(0, 0, 0)" stop-opacity="0" />
            <stop offset="0.39" stop-color="rgb(0, 0, 0)" stop-opacity="0" />
            <stop offset="1" stop-color="rgb(0, 0, 0)" stop-opacity="0.5" />
        </linearGradient>
        <linearGradient id="obj_Gradient_6-bezier19" x1="288.93" y1="157.6" x2="313.47" y2="157.6" gradientUnits="userSpaceOnUse" >
            <stop offset="0" stop-color="rgb(123, 0, 0)" stop-opacity="1" />
            <stop offset="1" stop-color="rgb(165, 0, 0)" stop-opacity="1" />
        </linearGradient>
        <linearGradient id="obj_Gradient_7-bezier21" x1="277.49" y1="159.02" x2="300.38" y2="119.38" gradientUnits="userSpaceOnUse" >
            <stop offset="0" stop-color="rgb(165, 0, 0)" stop-opacity="1" />
            <stop offset="1" stop-color="rgb(247, 21, 21)" stop-opacity="1" />
        </linearGradient>
        <linearGradient id="obj_Gradient_8-bezier23" x1="287.7" y1="138.49" x2="265.63" y2="176.71" gradientUnits="userSpaceOnUse" >
            <stop offset="0" stop-color="rgb(254, 76, 76)" stop-opacity="1" />
            <stop offset="1" stop-color="rgb(254, 76, 76)" stop-opacity="1" />
        </linearGradient>
        <linearGradient id="obj_Gradient_9-bezier25" x1="443.91" y1="131.64" x2="421.02" y2="171.29" gradientUnits="userSpaceOnUse" >
            <stop offset="0" stop-color="rgb(0, 0, 0)" stop-opacity="0" />
            <stop offset="0.39" stop-color="rgb(0, 0, 0)" stop-opacity="0" />
            <stop offset="1" stop-color="rgb(0, 0, 0)" stop-opacity="0.5" />
        </linearGradient>
        <linearGradient id="obj_Gradient_a-bezier26" x1="407.93" y1="157.6" x2="432.47" y2="157.6" gradientUnits="userSpaceOnUse" >
            <stop offset="0" stop-color="rgb(123, 0, 0)" stop-opacity="1" />
            <stop offset="1" stop-color="rgb(165, 0, 0)" stop-opacity="1" />
        </linearGradient>
        <linearGradient id="obj_Gradient_b-bezier28" x1="396.49" y1="159.02" x2="419.38" y2="119.38" gradientUnits="userSpaceOnUse" >
            <stop offset="0" stop-color="rgb(165, 0, 0)" stop-opacity="1" />
            <stop offset="1" stop-color="rgb(247, 21, 21)" stop-opacity="1" />
        </linearGradient>
        <linearGradient id="obj_Gradient_c-bezier30" x1="406.7" y1="138.49" x2="384.63" y2="176.71" gradientUnits="userSpaceOnUse" >
            <stop offset="0" stop-color="rgb(254, 76, 76)" stop-opacity="1" />
            <stop offset="1" stop-color="rgb(254, 76, 76)" stop-opacity="1" />
        </linearGradient>
        <linearGradient id="obj_Gradient_d-bezier32" x1="86.91" y1="131.64" x2="64.02" y2="171.29" gradientUnits="userSpaceOnUse" >
            <stop offset="0" stop-color="rgb(0, 0, 0)" stop-opacity="0" />
            <stop offset="0.39" stop-color="rgb(0, 0, 0)" stop-opacity="0" />
            <stop offset="1" stop-color="rgb(0, 0, 0)" stop-opacity="0.5" />
        </linearGradient>
        <linearGradient id="obj_Gradient_e-bezier33" x1="50.93" y1="157.6" x2="75.47" y2="157.6" gradientUnits="userSpaceOnUse" >
            <stop offset="0" stop-color="rgb(123, 0, 0)" stop-opacity="1" />
            <stop offset="1" stop-color="rgb(165, 0, 0)" stop-opacity="1" />
        </linearGradient>
        <linearGradient id="obj_Gradient_f-bezier35" x1="39.49" y1="159.02" x2="62.38" y2="119.38" gradientUnits="userSpaceOnUse" >
            <stop offset="0" stop-color="rgb(165, 0, 0)" stop-opacity="1" />
            <stop offset="1" stop-color="rgb(247, 21, 21)" stop-opacity="1" />
        </linearGradient>
        <linearGradient id="obj_Gradient_10-bezier37" x1="49.7" y1="138.49" x2="27.63" y2="176.71" gradientUnits="userSpaceOnUse" >
            <stop offset="0" stop-color="rgb(254, 76, 76)" stop-opacity="1" />
            <stop offset="1" stop-color="rgb(254, 76, 76)" stop-opacity="1" />
        </linearGradient>
        <filter id="shadow-outer" filterUnits="userSpaceOnUse">
            <feGaussianBlur stdDeviation="2.5" />
            <feOffset dx="3.1" dy="3.1" result="blur" />
            <feFlood flood-color="rgb(0, 0, 0)" flood-opacity="1" />
            <feComposite in2="blur" operator="in" result="colorShadow" />
            <feComposite in="SourceGraphic" in2="colorShadow" operator="over" />
        </filter>
        <filter id="shadow-outer" filterUnits="userSpaceOnUse">
            <feGaussianBlur stdDeviation="2.5" />
            <feOffset dx="3.1" dy="3.1" result="blur" />
            <feFlood flood-color="rgb(0, 0, 0)" flood-opacity="1" />
            <feComposite in2="blur" operator="in" result="colorShadow" />
            <feComposite in="SourceGraphic" in2="colorShadow" operator="over" />
        </filter>
        <filter id="shadow-outer" filterUnits="userSpaceOnUse">
            <feGaussianBlur stdDeviation="2.5" />
            <feOffset dx="3.1" dy="3.1" result="blur" />
            <feFlood flood-color="rgb(0, 0, 0)" flood-opacity="1" />
            <feComposite in2="blur" operator="in" result="colorShadow" />
            <feComposite in="SourceGraphic" in2="colorShadow" operator="over" />
        </filter>
        <filter id="shadow-outer" filterUnits="userSpaceOnUse">
            <feGaussianBlur stdDeviation="2.5" />
            <feOffset dx="3.1" dy="3.1" result="blur" />
            <feFlood flood-color="rgb(0, 0, 0)" flood-opacity="1" />
            <feComposite in2="blur" operator="in" result="colorShadow" />
            <feComposite in="SourceGraphic" in2="colorShadow" operator="over" />
        </filter>
    </defs>
    <path id="bezier" stroke="none" fill="rgb(123, 0, 0)" d="M 412.22,209.6 L 405.78,209.6 405.78,191.17 399,191.17 409,171.2 419,191.17 412.22,191.17 412.22,209.6 Z M 412.22,209.6" />
    <path id="bezier3" stroke="none" fill="rgb(123, 0, 0)" d="M 293.22,209.6 L 286.78,209.6 286.78,191.17 280,191.17 290,171.2 300,191.17 293.22,191.17 293.22,209.6 Z M 293.22,209.6" />
    <path id="bezier5" stroke="none" fill="rgb(123, 0, 0)" d="M 174.22,209.6 L 167.78,209.6 167.78,191.17 161,191.17 171,171.2 181,191.17 174.22,191.17 174.22,209.6 Z M 174.22,209.6" />
    <path id="bezier7" stroke="none" fill="rgb(123, 0, 0)" d="M 55.22,209.6 L 48.78,209.6 48.78,191.17 42,191.17 52,171.2 62,191.17 55.22,191.17 55.22,209.6 Z M 55.22,209.6" />
    <path id="bezier9" stroke="none" fill="rgb(202, 0, 0)" d="M 52.4,161.6 L 52.4,142.4 504.56,142.4 504.56,123.2 529,152 504.56,180.8 504.56,161.6 52.4,161.6 Z M 52.4,161.6" />
    <path id="bezier11" stroke="none" fill="url(#obj_Gradient-bezier11)" d="M 169.93,151.47 L 194.47,139.2 219,151.47 194.47,163.73 169.93,151.47 Z M 169.93,151.47" />
    <path id="bezier12" stroke="rgb(46, 46, 46)" stroke-miterlimit="4" fill="url(#obj_Gradient_2-bezier12)" d="M 194.47,163.73 L 194.47,139.2 169.93,151.47 169.93,176 194.47,163.73 Z M 194.47,163.73" />
    <path id="bezier14" stroke="rgb(46, 46, 46)" stroke-miterlimit="4" fill="url(#obj_Gradient_3-bezier14)" d="M 194.47,139.2 L 169.93,126.93 145.4,139.2 169.93,151.47 194.47,139.2 Z M 194.47,139.2" />
    <path id="bezier16" stroke="rgb(46, 46, 46)" stroke-miterlimit="4" fill="url(#obj_Gradient_4-bezier16)" d="M 145.4,163.73 L 145.4,139.2 169.93,151.47 169.93,176 145.4,163.73 Z M 145.4,163.73" />
    <path id="bezier18" stroke="none" fill="url(#obj_Gradient_5-bezier18)" d="M 288.93,151.47 L 313.47,139.2 338,151.47 313.47,163.73 288.93,151.47 Z M 288.93,151.47" />
    <path id="bezier19" stroke="rgb(46, 46, 46)" stroke-miterlimit="4" fill="url(#obj_Gradient_6-bezier19)" d="M 313.47,163.73 L 313.47,139.2 288.93,151.47 288.93,176 313.47,163.73 Z M 313.47,163.73" />
    <path id="bezier21" stroke="rgb(46, 46, 46)" stroke-miterlimit="4" fill="url(#obj_Gradient_7-bezier21)" d="M 313.47,139.2 L 288.93,126.93 264.4,139.2 288.93,151.47 313.47,139.2 Z M 313.47,139.2" />
    <path id="bezier23" stroke="rgb(46, 46, 46)" stroke-miterlimit="4" fill="url(#obj_Gradient_8-bezier23)" d="M 264.4,163.73 L 264.4,139.2 288.93,151.47 288.93,176 264.4,163.73 Z M 264.4,163.73" />
    <path id="bezier25" stroke="none" fill="url(#obj_Gradient_9-bezier25)" d="M 407.93,151.47 L 432.47,139.2 457,151.47 432.47,163.73 407.93,151.47 Z M 407.93,151.47" />
    <path id="bezier26" stroke="rgb(46, 46, 46)" stroke-miterlimit="4" fill="url(#obj_Gradient_a-bezier26)" d="M 432.47,163.73 L 432.47,139.2 407.93,151.47 407.93,176 432.47,163.73 Z M 432.47,163.73" />
    <path id="bezier28" stroke="rgb(46, 46, 46)" stroke-miterlimit="4" fill="url(#obj_Gradient_b-bezier28)" d="M 432.47,139.2 L 407.93,126.93 383.4,139.2 407.93,151.47 432.47,139.2 Z M 432.47,139.2" />
    <path id="bezier30" stroke="rgb(46, 46, 46)" stroke-miterlimit="4" fill="url(#obj_Gradient_c-bezier30)" d="M 383.4,163.73 L 383.4,139.2 407.93,151.47 407.93,176 383.4,163.73 Z M 383.4,163.73" />
    <path id="bezier32" stroke="none" fill="url(#obj_Gradient_d-bezier32)" d="M 50.93,151.47 L 75.47,139.2 100,151.47 75.47,163.73 50.93,151.47 Z M 50.93,151.47" />
    <path id="bezier33" stroke="rgb(46, 46, 46)" stroke-miterlimit="4" fill="url(#obj_Gradient_e-bezier33)" d="M 75.47,163.73 L 75.47,139.2 50.93,151.47 50.93,176 75.47,163.73 Z M 75.47,163.73" />
    <path id="bezier35" stroke="rgb(46, 46, 46)" stroke-miterlimit="4" fill="url(#obj_Gradient_f-bezier35)" d="M 75.47,139.2 L 50.93,126.93 26.4,139.2 50.93,151.47 75.47,139.2 Z M 75.47,139.2" />
    <path id="bezier37" stroke="rgb(46, 46, 46)" stroke-miterlimit="4" fill="url(#obj_Gradient_10-bezier37)" d="M 26.4,163.73 L 26.4,139.2 50.93,151.47 50.93,176 26.4,163.73 Z M 26.4,163.73" />
    <path id="bezier39" stroke="rgb(68, 68, 68)" stroke-miterlimit="4" fill="rgb(255, 255, 255)" d="M 85.94,15.26 C 104.69,34 104.69,64.4 85.94,83.14 67.2,101.89 36.8,101.89 18.06,83.14 -0.69,64.4 -0.69,34 18.06,15.26 36.8,-3.49 67.2,-3.49 85.94,15.26 Z M 85.94,15.26" />
    <path id="bezier41" stroke="rgb(68, 68, 68)" stroke-miterlimit="4" fill="rgb(255, 255, 255)" d="M 442.94,15.26 C 461.69,34 461.69,64.4 442.94,83.14 424.2,101.89 393.8,101.89 375.06,83.14 356.31,64.4 356.31,34 375.06,15.26 393.8,-3.49 424.2,-3.49 442.94,15.26 Z M 442.94,15.26" />
    <path id="bezier43" stroke="rgb(68, 68, 68)" stroke-miterlimit="4" fill="rgb(255, 255, 255)" d="M 323.94,15.26 C 342.69,34 342.69,64.4 323.94,83.14 305.2,101.89 274.8,101.89 256.06,83.14 237.31,64.4 237.31,34 256.06,15.26 274.8,-3.49 305.2,-3.49 323.94,15.26 Z M 323.94,15.26" />
    <path id="bezier45" stroke="rgb(68, 68, 68)" stroke-miterlimit="4" fill="rgb(255, 255, 255)" d="M 204.94,15.26 C 223.69,34 223.69,64.4 204.94,83.14 186.2,101.89 155.8,101.89 137.06,83.14 118.31,64.4 118.31,34 137.06,15.26 155.8,-3.49 186.2,-3.49 204.94,15.26 Z M 204.94,15.26" />
    <g id="group3" filter="url(#shadow-outer)">
        <rect id="rectangle6" stroke="none" fill="rgb(45, 153, 153)" x="4" y="211.6" width="96" height="96" />
    </g>
    <g id="group4" filter="url(#shadow-outer)">
        <rect id="rectangle8" stroke="none" fill="rgb(77, 115, 0)" x="123" y="211.6" width="96" height="96" />
    </g>
    <g id="group5" filter="url(#shadow-outer)">
        <path id="bezier47" stroke="none" fill="rgb(21, 121, 120)" d="M 242,210.6 L 338,210.6 338,306.6 242,306.6 242,210.6 Z M 242,210.6" />
    </g>
    <g id="group6" filter="url(#shadow-outer)">
        <rect id="rectangle11" stroke="none" fill="rgb(129, 188, 31)" x="361" y="211.6" width="96" height="96" />
    </g>
    <path id="bezier48" stroke="none" fill="rgb(123, 0, 0)" d="M 48.78,99.87 L 55.22,99.87 55.22,117.63 62,117.63 52,137.6 42,117.63 48.78,117.63 48.78,99.87 Z M 48.78,99.87" />
    <path id="bezier50" stroke="none" fill="rgb(123, 0, 0)" d="M 167.78,99.87 L 174.22,99.87 174.22,117.63 181,117.63 171,137.6 161,117.63 167.78,117.63 167.78,99.87 Z M 167.78,99.87" />
    <path id="bezier52" stroke="none" fill="rgb(123, 0, 0)" d="M 286.78,99.87 L 293.22,99.87 293.22,117.63 300,117.63 290,137.6 280,117.63 286.78,117.63 286.78,99.87 Z M 286.78,99.87" />
    <path id="bezier54" stroke="none" fill="rgb(123, 0, 0)" d="M 405.78,99.87 L 412.22,99.87 412.22,117.63 419,117.63 409,137.6 399,117.63 405.78,117.63 405.78,99.87 Z M 405.78,99.87" />
    <g id="group2">
        <path id="bezier6" stroke="none" fill="rgb(184, 234, 82)" d="M 202,228.03 C 201.98,227.93 201.92,227.84 201.83,227.79 L 200.52,227.03 C 200.95,226.5 201.35,225.98 201.72,225.52 200.82,221.82 196.66,221.35 196.66,221.35 L 195.38,223.11 194.37,222.13 C 194.3,222.05 194.2,222.02 194.09,222.03 193.99,222.03 193.89,222.08 193.83,222.17 L 193.07,223.17 C 193.01,223.25 192.98,223.36 193.01,223.46 193.02,223.54 193.07,223.62 193.14,223.67 193.15,223.68 193.16,223.69 193.18,223.7 L 194.43,224.43 193.54,225.65 192.47,224.62 C 192.4,224.55 192.3,224.51 192.2,224.52 192.09,224.53 192,224.58 191.93,224.66 L 191.17,225.66 C 191.11,225.75 191.09,225.85 191.11,225.95 191.12,226.04 191.17,226.12 191.24,226.17 191.25,226.18 191.27,226.19 191.28,226.2 L 192.59,226.96 191.66,228.23 190.56,227.15 C 190.48,227.07 190.38,227.04 190.28,227.05 190.17,227.05 190.08,227.11 190.02,227.19 L 189.25,228.19 C 189.19,228.27 189.17,228.38 189.19,228.48 189.21,228.57 189.25,228.64 189.32,228.7 189.34,228.71 189.35,228.71 189.36,228.72 L 190.81,229.57 C 190.84,229.58 190.86,229.59 190.88,229.59 L 189.94,232.35 192.86,234.57 195.52,233.03 C 195.53,233.1 195.56,233.16 195.61,233.21 L 196.82,234.39 C 196.83,234.4 196.84,234.41 196.85,234.41 196.92,234.47 197.01,234.49 197.1,234.49 197.2,234.48 197.29,234.43 197.36,234.35 L 198.12,233.34 C 198.18,233.26 198.2,233.16 198.18,233.06 198.16,232.95 198.1,232.87 198.01,232.81 L 196.56,231.97 C 196.55,231.97 196.55,231.97 196.54,231.96 196.83,231.62 197.17,231.2 197.56,230.72 L 198.74,231.86 C 198.75,231.87 198.76,231.88 198.77,231.89 198.84,231.94 198.93,231.97 199.01,231.96 199.12,231.95 199.21,231.9 199.28,231.82 L 200.04,230.82 C 200.1,230.74 200.12,230.63 200.1,230.53 200.08,230.43 200.02,230.34 199.93,230.29 L 198.56,229.49 C 198.87,229.1 199.2,228.69 199.52,228.29 L 200.63,229.36 C 200.64,229.37 200.65,229.38 200.67,229.39 200.73,229.44 200.82,229.47 200.91,229.46 201.02,229.46 201.11,229.41 201.17,229.32 L 201.93,228.32 C 201.99,228.24 202.02,228.13 202,228.03 Z M 192.75,230.06 C 192.53,230.33 192.13,230.39 191.85,230.18 191.57,229.96 191.52,229.56 191.73,229.28 191.95,229 192.34,228.95 192.63,229.16 192.91,229.37 192.96,229.77 192.75,230.06 Z M 194.67,227.53 C 194.45,227.81 194.05,227.86 193.77,227.65 193.49,227.44 193.44,227.04 193.65,226.76 193.86,226.47 194.26,226.42 194.54,226.63 194.83,226.85 194.88,227.25 194.67,227.53 Z M 195.55,224.26 C 195.76,223.98 196.16,223.93 196.44,224.14 196.72,224.35 196.78,224.75 196.56,225.03 196.35,225.31 195.95,225.37 195.67,225.15 195.39,224.94 195.33,224.54 195.55,224.26 Z M 195.46,232.12 C 195.25,232.4 194.85,232.45 194.57,232.24 194.29,232.03 194.23,231.63 194.45,231.35 194.66,231.06 195.06,231.01 195.34,231.22 195.62,231.43 195.68,231.84 195.46,232.12 Z M 197.38,229.59 C 197.17,229.87 196.77,229.93 196.49,229.71 196.21,229.5 196.15,229.1 196.37,228.82 196.58,228.54 196.98,228.48 197.26,228.7 197.54,228.91 197.6,229.31 197.38,229.59 Z M 199.28,227.1 C 199.07,227.38 198.67,227.43 198.38,227.22 198.1,227 198.05,226.6 198.26,226.32 198.47,226.04 198.88,225.99 199.16,226.2 199.44,226.41 199.49,226.82 199.28,227.1 Z M 199.28,227.1" />
        <path id="bezier8" stroke="none" fill="rgb(184, 234, 82)" d="M 172.53,262.11 L 192.26,235.21 189.47,233.1 171.4,256.05 C 171.24,255.91 171.08,255.77 170.93,255.64 166.35,251.92 162.57,251.23 159.59,254.27 157.66,256.24 157.72,258.02 156.87,259.45 152.26,267.15 145.88,265.62 140.92,270.9 137.21,274.84 137.49,280.41 139.2,283.49 143.7,291.58 158.04,301.68 165.5,293.8 170.41,288.62 169.75,283.63 171.18,278.78 171.65,277.19 172.96,274.76 174.39,273.37 175.22,272.56 177.48,272.3 178.25,270.26 179.44,267.14 171.77,265.48 172.53,262.11 Z M 159.96,266.37 C 161.39,264.5 164.06,264.14 165.93,265.56 167.8,266.98 168.17,269.65 166.74,271.53 165.32,273.4 162.65,273.77 160.78,272.34 158.9,270.92 158.54,268.25 159.96,266.37 Z M 160.54,284.69 L 150.3,276.91 151.57,275.25 161.81,283.03 160.54,284.69 Z M 165.56,282.39 C 164.44,282.75 163.89,282.87 161.94,281.43 160.45,280.14 159.77,279.04 161.31,276.59 162.4,275.17 163.38,274.58 164.61,274.72 165.86,274.73 169.26,273.3 169.58,269.09 169.53,268.05 170.39,267.94 170.85,270.52 170.85,270.52 171.97,278.7 165.56,282.39 Z M 165.56,282.39" />
    </g>
    <g id="group">
        <path id="bezier2" stroke="none" fill="rgb(9, 74, 74)" d="M 44.5,225.68 C 41.85,225.64 38.96,227.26 38.03,230.21 37.99,230.34 37.31,232.34 37.27,232.49 L 31.69,232.49 C 33.93,233.97 34.67,234.36 36.91,234.36 37.28,234.36 38.79,234.35 39.16,233.24 39.27,232.91 40.04,230.7 40.19,230.4 40.85,229.07 41.87,228.09 43.13,228.09 44.68,228.09 44.75,229.56 44.63,231.06 L 40.53,280.68 C 39.97,287.48 45.38,294 53.96,294 58.84,294 61.95,292.44 63.52,287.78 65.09,283.11 62.71,274.46 68.52,272.53 L 56.19,260.3 C 51.82,264.46 52.35,273.32 53.2,278.83 53.37,279.93 53.22,283.26 51.73,283.26 50.24,283.26 49.63,280.55 49.62,279.29 L 49.48,231.06 C 49.56,227.42 47.15,225.73 44.5,225.68 Z M 46.27,252.35 C 47.19,252.35 47.96,253.09 47.96,254.01 47.96,254.93 47.19,255.68 46.27,255.68 45.34,255.68 44.6,254.93 44.6,254.01 44.6,253.09 45.34,252.35 46.27,252.35 Z M 46.02,258.82 C 46.95,258.82 47.69,259.58 47.69,260.5 47.69,261.42 46.95,262.15 46.02,262.15 45.09,262.15 44.33,261.42 44.33,260.5 44.33,259.58 45.1,258.82 46.02,258.82 Z M 45.75,265.31 C 46.68,265.31 47.42,266.05 47.42,266.97 47.42,267.89 46.68,268.64 45.75,268.64 44.83,268.64 44.06,267.89 44.06,266.97 44.06,266.05 44.83,265.31 45.75,265.31 Z M 45.75,265.31" />
        <path id="bezier4" stroke="none" fill="rgb(9, 74, 74)" d="M 72.19,272.71 L 72.5,272.4 C 72.85,272.05 72.85,271.49 72.5,271.14 L 57.15,255.9 C 56.8,255.56 56.23,255.56 55.88,255.9 L 55.56,256.22 C 55.22,256.56 55.22,257.13 55.56,257.47 L 70.92,272.71 C 71.27,273.06 71.84,273.06 72.19,272.71 Z M 72.19,272.71" />
    </g>
    <g id="group13">
        <path id="bezier62" stroke="none" fill="rgb(79, 114, 15)" d="M 410.38,275.55 C 410.34,275.6 410.38,275.64 410.38,275.69 L 410.26,275.71 410.26,277.9 411.13,278.61 413.79,278.12 413.79,275.93 413.6,275.56 C 413.6,275.55 413.64,275.55 413.64,275.55 413.41,274.76 414.12,262.98 414.37,258.78 412.7,259.05 411.11,259.3 409.74,259.52 410.08,263.74 410.93,275 410.38,275.55 Z M 410.38,275.55" />
        <path id="bezier63" stroke="none" fill="rgb(79, 114, 15)" d="M 391.32,254.86 C 391.53,257.41 392.31,267.38 391.86,267.83 391.82,267.87 391.7,267.9 391.71,267.94 L 391.57,267.94 391.57,269.62 392.4,270.17 394.6,269.79 394.6,268.11 394.3,267.61 C 394.23,266.23 394.66,259.55 394.87,256.2 L 391.32,254.86 Z M 391.32,254.86" />
        <path id="bezier64" stroke="none" fill="rgb(79, 114, 15)" d="M 429.96,266.96 C 429.91,267.01 429.93,267.04 429.93,267.08 L 429.95,267.07 429.95,268.92 430.72,269.52 432.98,269.1 432.98,267.26 432.64,266.71 C 432.57,265.34 432.93,259.32 433.17,255.46 432.19,255.64 430.91,255.89 429.62,256.13 429.93,260.39 430.33,266.59 429.96,266.96 Z M 429.96,266.96" />
        <path id="bezier65" stroke="none" fill="rgb(79, 114, 15)" d="M 431.43,242.17 C 427.61,242.91 421.91,243.69 414.94,244.43 413.72,244.56 413.41,244.9 413.38,245.06 L 413.4,245.08 413.39,245.08 C 413.39,245.58 413.38,247.09 413.15,247.93 L 413.15,247.97 C 412.36,250.47 410.73,250.75 408.25,251.14 407.97,251.19 407.66,251.25 407.34,251.3 L 407.28,251.31 C 404.82,251.48 404.4,252.58 404.4,255.78 404.4,258.01 404.77,258.83 404.99,259.11 405.16,259.14 405.34,259.16 405.53,259.16 406.6,259.16 419.73,256.96 423.92,256.25 424.72,256.12 434.74,254.22 434.74,254.22 434.74,254.22 434.91,245.05 434.96,241.36 435.13,241.31 433.16,241.84 431.43,242.17 Z M 431.43,242.17" />
        <path id="bezier66" stroke="none" fill="rgb(79, 114, 15)" d="M 433.54,239.63 C 431.56,239.48 413.36,239.19 407.98,239.07 407.6,239.07 407.21,239.06 406.82,239.06 401.05,239.06 393.15,239.87 392.46,239.92 391.73,239.98 392.03,241.69 391.89,243.13 391.75,244.56 389.99,244.98 389.99,244.98 389.99,244.98 387.69,245.49 386.06,245.8 384.43,246.11 384.5,246.84 384.5,246.84 L 384.5,248.75 384.5,248.86 384.5,251.31 C 384.5,251.31 403.14,258.3 403.48,258.44 403.45,258.24 403.23,257.25 403.23,255.78 403.23,254.62 403.28,253.54 403.56,252.63 L 388.04,247.85 388.04,247.41 391.95,246.4 C 391.95,246.4 401.41,249.13 405.92,250.14 L 405.92,250.14 C 408.07,250.14 407.78,249.93 408.07,249.89 409.59,249.64 410.52,249.54 411.14,249.04 L 394.62,244.95 C 394.07,244.81 393.64,244.27 393.64,243.71 L 393.64,241.94 C 393.64,241.68 393.73,241.45 393.89,241.28 394.1,241.08 394.4,240.99 394.71,241.05 L 412.3,244.52 C 412.31,244.52 412.33,244.52 412.35,244.53 412.39,244.44 412.45,244.34 412.53,244.24 412.94,243.71 413.71,243.37 414.82,243.25 421.4,242.55 426.67,241.85 430.48,241.15 432.8,240.73 433.99,240.38 435,240.12 435,240.09 435,240.07 435,240.05 435,240.06 434.99,239.89 434.45,239.76 434.27,239.72 433.7,239.64 433.54,239.63 Z M 433.54,239.63" />
    </g>
    <g id="g4977">
        <path id="bezier10" stroke="none" fill="rgb(54, 153, 152)" d="M 252.65,248.11 L 252.71,255.03 C 254.32,255.02 255.65,253.95 256.06,252.49 L 267.5,252.42 C 266.7,253.49 266.23,254.79 266.24,256.22 266.27,259.74 269.23,262.61 272.82,262.58 L 294.94,262.42 302.32,262.36 308.79,262.3 C 312.38,262.28 315.28,259.38 315.25,255.85 315.24,254.44 314.75,253.13 313.94,252.07 L 318.47,252.03 C 322.56,253.96 324.6,262.38 324.6,262.38 324.78,263.04 325.28,263.02 325.27,262.37 L 325.17,250.7 325.09,239.67 C 325.08,239.02 324.59,239.02 324.43,239.66 324.43,239.66 322.52,247.47 318.32,249.54 L 309.83,249.59 272.05,249.79 255.74,249.87 C 255.13,248.81 253.97,248.09 252.65,248.1 L 252.65,248.11 Z M 271.58,252.54 C 271.88,252.45 272.18,252.4 272.5,252.38 L 295.95,252.2 C 295.95,252.2 299.49,252.26 301.14,252.25 303.31,252.23 305.03,253.89 305.05,256.03 305.06,257.87 303.8,259.39 302.05,259.77 L 301.99,259.79 272.78,259.98 C 270.61,260 268.91,258.33 268.89,256.2 268.88,254.46 270,253.03 271.58,252.54 Z M 306.3,252.13 L 309.13,252.12 C 311.1,252.3 312.59,253.89 312.6,255.88 312.62,258.02 310.93,259.71 308.76,259.73 L 306.48,259.74 C 307.25,258.68 307.71,257.39 307.7,256 307.69,254.54 307.16,253.2 306.3,252.13 L 306.3,252.13 Z M 306.3,252.13" />
        <path id="bezier49" stroke="none" fill="rgb(54, 153, 152)" d="M 282.99,248.74 L 284.65,248.74 C 284.96,248.74 285.21,248.98 285.21,249.28 L 285.27,262.42 C 285.27,262.72 285.03,262.97 284.72,262.97 L 283.06,262.98 C 282.75,262.98 282.5,262.74 282.5,262.44 L 282.44,249.29 C 282.43,248.99 282.68,248.75 282.99,248.74 Z M 282.99,248.74" />
        <path id="bezier51" stroke="none" fill="rgb(54, 153, 152)" d="M 287.86,248.72 L 289.52,248.71 C 289.83,248.71 290.07,248.95 290.08,249.26 L 290.14,262.4 C 290.14,262.7 289.89,262.95 289.59,262.95 L 287.92,262.96 C 287.62,262.96 287.37,262.71 287.37,262.41 L 287.3,249.27 C 287.3,248.97 287.55,248.72 287.86,248.72 Z M 287.86,248.72" />
        <path id="bezier53" stroke="none" fill="rgb(54, 153, 152)" d="M 292.72,248.7 L 294.39,248.69 C 294.69,248.69 294.94,248.93 294.94,249.23 L 295.01,262.38 C 295.01,262.68 294.76,262.92 294.45,262.92 L 292.79,262.93 C 292.48,262.93 292.24,262.69 292.23,262.39 L 292.17,249.25 C 292.17,248.94 292.41,248.7 292.72,248.7 Z M 292.72,248.7" />
        <path id="bezier55" stroke="none" fill="rgb(54, 153, 152)" d="M 283.81,247.61 C 283.98,247.61 284.12,247.75 284.12,247.91 L 284.13,249.15 C 284.13,249.32 283.99,249.45 283.82,249.45 283.65,249.46 283.52,249.32 283.52,249.16 L 283.51,247.91 C 283.51,247.75 283.65,247.61 283.81,247.61 Z M 283.81,247.61" />
        <path id="bezier56" stroke="none" fill="rgb(54, 153, 152)" d="M 288.68,247.5 C 288.85,247.5 288.99,247.64 288.99,247.8 L 288.99,249.04 C 288.99,249.21 288.86,249.35 288.69,249.35 288.52,249.35 288.38,249.21 288.38,249.05 L 288.38,247.81 C 288.38,247.64 288.51,247.51 288.68,247.5 Z M 288.68,247.5" />
        <path id="bezier57" stroke="none" fill="rgb(54, 153, 152)" d="M 293.55,247.48 C 293.72,247.48 293.85,247.61 293.85,247.78 L 293.86,249.02 C 293.86,249.19 293.73,249.32 293.56,249.32 293.39,249.32 293.25,249.19 293.25,249.02 L 293.24,247.78 C 293.24,247.62 293.38,247.48 293.55,247.48 Z M 293.55,247.48" />
        <path id="bezier58" stroke="none" fill="rgb(54, 153, 152)" d="M 282.2,247.24 L 285.42,247.22 C 285.64,247.22 285.82,247.39 285.82,247.6 285.82,247.82 285.65,247.99 285.43,247.99 L 282.2,248.01 C 281.99,248.01 281.81,247.84 281.81,247.62 281.81,247.41 281.98,247.24 282.2,247.24 Z M 282.2,247.24" />
        <path id="bezier59" stroke="none" fill="rgb(54, 153, 152)" d="M 287.07,247.21 L 290.29,247.2 C 290.51,247.2 290.68,247.37 290.69,247.58 290.69,247.79 290.51,247.97 290.29,247.97 L 287.07,247.98 C 286.85,247.98 286.68,247.81 286.68,247.6 286.68,247.39 286.85,247.21 287.07,247.21 Z M 287.07,247.21" />
        <path id="bezier60" stroke="none" fill="rgb(54, 153, 152)" d="M 291.93,247.19 L 295.16,247.17 C 295.38,247.17 295.55,247.34 295.55,247.56 295.55,247.77 295.38,247.94 295.16,247.94 L 291.94,247.96 C 291.72,247.96 291.55,247.79 291.54,247.58 291.54,247.36 291.72,247.19 291.93,247.19 Z M 291.93,247.19" />
    </g>
    <rect id="rectangle14" stroke="none" fill="none" x="529" y="134" width="102" height="32" />
    <text fill="rgb(68, 68, 68)" font-family="Varela, sans-serif" font-size="16" x="535.82" y="134">
        <tspan x="535.82" y="150">selection of </tspan>
    </text>
    <rect id="rectangle15" stroke="none" fill="none" x="529" y="154" width="102" height="32" />
    <text fill="rgb(68, 68, 68)" font-family="Varela, sans-serif" font-size="16" x="545.17" y="154">
        <tspan x="545.17" y="170">4 objects</tspan>
    </text>
    <rect id="rectangle5" stroke="none" fill="none" x="122" y="39" width="97" height="32" />
    <text fill="rgb(68, 68, 68)" font-family="Varela, sans-serif" font-size="16" x="140.94" y="39">
        <tspan x="140.94" y="55">&lt;circle&gt;</tspan>
    </text>
    <rect id="rectangle4" stroke="none" fill="none" x="241" y="39" width="96" height="32" />
    <text fill="rgb(68, 68, 68)" font-family="Varela, sans-serif" font-size="16" x="259.44" y="39">
        <tspan x="259.44" y="55">&lt;circle&gt;</tspan>
    </text>
    <rect id="rectangle3" stroke="none" fill="none" x="360" y="39" width="96" height="32" />
    <text fill="rgb(68, 68, 68)" font-family="Varela, sans-serif" font-size="16" x="378.44" y="39">
        <tspan x="378.44" y="55">&lt;circle&gt;</tspan>
    </text>
    <rect id="rectangle2" stroke="none" fill="none" x="3" y="39" width="96" height="32" />
    <text fill="rgb(68, 68, 68)" font-family="Varela, sans-serif" font-size="16" x="21.44" y="39">
        <tspan x="21.44" y="55">&lt;circle&gt;</tspan>
    </text>
</svg>
