<?xml version="1.0" encoding="UTF-8"?>
<!DOCTYPE svg PUBLIC "-//W3C//DTD SVG 1.1//EN" "http://www.w3.org/Graphics/SVG/1.1/DTD/svg11.dtd">
<svg version="1.1" xmlns="http://www.w3.org/2000/svg" xmlns:xlink="http://www.w3.org/1999/xlink" width="600" height="133"  xml:space="preserve">
    <defs>
        <filter id="shadow-outer" filterUnits="userSpaceOnUse">
            <feGaussianBlur stdDeviation="2.5" />
            <feOffset dx="0.1" dy="3.1" result="blur" />
            <feFlood flood-color="rgb(0, 0, 0)" flood-opacity="0.5" />
            <feComposite in2="blur" operator="in" result="colorShadow" />
            <feComposite in="SourceGraphic" in2="colorShadow" operator="over" />
        </filter>
    </defs>
    <path id="bezier" stroke="none" fill="rgb(255, 255, 255)" filter="url(#shadow-outer)" d="M 192.33,5.6 L 409.93,5.6 C 418.77,5.6 425.93,12.76 425.93,21.6 L 425.93,104.8 C 425.93,113.64 418.77,120.8 409.93,120.8 L 192.33,120.8 C 183.5,120.8 176.33,113.64 176.33,104.8 L 176.33,21.6 C 176.33,12.76 183.5,5.6 192.33,5.6 Z M 192.33,5.6" />
    <path id="bezier2" stroke="rgb(68, 68, 68)" stroke-width="1.33" stroke-linecap="round" stroke-linejoin="round" stroke-miterlimit="4" fill="none" d="M 192.33,5.6 L 409.93,5.6 C 418.77,5.6 425.93,12.76 425.93,21.6 L 425.93,104.8 C 425.93,113.64 418.77,120.8 409.93,120.8 L 192.33,120.8 C 183.5,120.8 176.33,113.64 176.33,104.8 L 176.33,21.6 C 176.33,12.76 183.5,5.6 192.33,5.6 Z M 192.33,5.6" />
    <path id="bezier3" stroke="none" fill="rgb(255, 255, 255)" d="M 176.33,24.8 L 253.13,24.8 253.13,63.2 176.33,63.2 176.33,24.8 Z M 176.33,24.8" />
    <path id="bezier4" stroke="none" fill="rgb(255, 255, 255)" d="M 253.13,24.8 L 416.33,24.8 416.33,63.2 253.13,63.2 253.13,24.8 Z M 253.13,24.8" />
    <path id="bezier5" stroke="none" fill="rgb(255, 255, 255)" d="M 176.33,63.2 L 253.13,63.2 253.13,101.6 176.33,101.6 176.33,63.2 Z M 176.33,63.2" />
    <path id="bezier6" stroke="none" fill="rgb(255, 255, 255)" d="M 253.13,63.2 L 416.33,63.2 416.33,101.6 253.13,101.6 253.13,63.2 Z M 253.13,63.2" />
    <path id="bezier7" stroke="rgb(68, 68, 68)" stroke-width="1.33" stroke-linecap="round" stroke-linejoin="round" stroke-miterlimit="4" fill="none" d="M 176.33,63.2 L 425.93,63.2 425.93,101.6 176.33,101.6 176.33,63.2 Z M 176.33,63.2" />
    <path id="bezier8" stroke="rgb(68, 68, 68)" stroke-width="1.33" stroke-linecap="round" stroke-linejoin="round" stroke-miterlimit="4" fill="none" d="M 176.33,24.8 L 425.93,24.8 425.93,63.2 176.33,63.2 176.33,24.8 Z M 176.33,24.8" />
    <rect id="rectangle2" stroke="none" fill="none" x="206" y="35" width="41" height="26" />
    <text fill="rgb(68, 68, 68)" font-family="Varela, sans-serif" font-size="13.33" x="219.52" y="35">
        <tspan x="219.52" y="49">size:</tspan>
    </text>
    <rect id="rectangle4" stroke="none" fill="none" x="259.8" y="34.52" width="26.67" height="26.67" />
    <text fill="rgb(68, 68, 68)" font-family="Varela, sans-serif" font-size="13.33" x="259.8" y="34.52">
        <tspan x="259.8" y="48.52">10</tspan>
    </text>
    <rect id="rectangle5" stroke="none" fill="none" x="200" y="73" width="47" height="27" />
    <text fill="rgb(68, 68, 68)" font-family="Varela, sans-serif" font-size="13.33" x="211.63" y="73">
        <tspan x="211.63" y="87">crust:</tspan>
    </text>
    <rect id="rectangle7" stroke="none" fill="none" x="259.8" y="72.92" width="66.67" height="26.67" />
    <text fill="rgb(68, 68, 68)" font-family="Varela, sans-serif" font-size="13.33" x="259.8" y="72.92">
        <tspan x="259.8" y="86.92">“thin”</tspan>
    </text>
    <rect id="rectangle9" stroke="none" fill="none" x="0" y="55" width="162" height="24" />
    <text fill="rgb(68, 68, 68)" font-family="Varela, sans-serif" font-size="12" x="12.83" y="55">
        <tspan x="12.83" y="67">_(pizza).pick(“size”,“crust”)</tspan>
    </text>
</svg>
