<?xml version="1.0" encoding="UTF-8"?>
<!DOCTYPE svg PUBLIC "-//W3C//DTD SVG 1.1//EN" "http://www.w3.org/Graphics/SVG/1.1/DTD/svg11.dtd">
<svg version="1.1" xmlns="http://www.w3.org/2000/svg" xmlns:xlink="http://www.w3.org/1999/xlink" width="640" height="132"  xml:space="preserve">
    <defs>
        <filter id="shadow-outer" filterUnits="userSpaceOnUse">
            <feGaussianBlur stdDeviation="2.5" />
            <feOffset dx="0.1" dy="3.1" result="blur" />
            <feFlood flood-color="rgb(0, 0, 0)" flood-opacity="0.5" />
            <feComposite in2="blur" operator="in" result="colorShadow" />
            <feComposite in="SourceGraphic" in2="colorShadow" operator="over" />
        </filter>
    </defs>
    <path id="bezier" stroke="none" fill="rgb(193, 193, 193)" filter="url(#shadow-outer)" d="M 25.8,5.87 L 73.8,5.87 73.8,53.87 25.8,53.87 25.8,5.87 Z M 25.8,5.87" />
    <path id="bezier2" stroke="rgb(68, 68, 68)" stroke-width="1.33" stroke-linecap="round" stroke-linejoin="round" stroke-miterlimit="4" fill="none" d="M 25.8,5.87 L 73.8,5.87 73.8,53.87 25.8,53.87 25.8,5.87 Z M 25.8,5.87" />
    <path id="bezier3" stroke="none" fill="rgb(255, 255, 255)" filter="url(#shadow-outer)" d="M 73.8,5.87 L 121.8,5.87 121.8,53.87 73.8,53.87 73.8,5.87 Z M 73.8,5.87" />
    <path id="bezier4" stroke="rgb(68, 68, 68)" stroke-width="1.33" stroke-linecap="round" stroke-linejoin="round" stroke-miterlimit="4" fill="none" d="M 73.8,5.87 L 121.8,5.87 121.8,53.87 73.8,53.87 73.8,5.87 Z M 73.8,5.87" />
    <path id="bezier5" stroke="none" fill="rgb(255, 255, 255)" filter="url(#shadow-outer)" d="M 121.8,5.87 L 169.8,5.87 169.8,53.87 121.8,53.87 121.8,5.87 Z M 121.8,5.87" />
    <path id="bezier6" stroke="rgb(68, 68, 68)" stroke-width="1.33" stroke-linecap="round" stroke-linejoin="round" stroke-miterlimit="4" fill="none" d="M 121.8,5.87 L 169.8,5.87 169.8,53.87 121.8,53.87 121.8,5.87 Z M 121.8,5.87" />
    <path id="bezier7" stroke="none" fill="rgb(193, 193, 193)" filter="url(#shadow-outer)" d="M 169.8,5.87 L 217.8,5.87 217.8,53.87 169.8,53.87 169.8,5.87 Z M 169.8,5.87" />
    <path id="bezier8" stroke="rgb(68, 68, 68)" stroke-width="1.33" stroke-linecap="round" stroke-linejoin="round" stroke-miterlimit="4" fill="none" d="M 169.8,5.87 L 217.8,5.87 217.8,53.87 169.8,53.87 169.8,5.87 Z M 169.8,5.87" />
    <path id="bezier9" stroke="none" fill="rgb(255, 255, 255)" filter="url(#shadow-outer)" d="M 217.8,5.87 L 265.8,5.87 265.8,53.87 217.8,53.87 217.8,5.87 Z M 217.8,5.87" />
    <path id="bezier10" stroke="rgb(68, 68, 68)" stroke-width="1.33" stroke-linecap="round" stroke-linejoin="round" stroke-miterlimit="4" fill="none" d="M 217.8,5.87 L 265.8,5.87 265.8,53.87 217.8,53.87 217.8,5.87 Z M 217.8,5.87" />
    <path id="bezier11" stroke="none" fill="rgb(255, 255, 255)" filter="url(#shadow-outer)" d="M 265.8,5.87 L 313.8,5.87 313.8,53.87 265.8,53.87 265.8,5.87 Z M 265.8,5.87" />
    <path id="bezier12" stroke="rgb(68, 68, 68)" stroke-width="1.33" stroke-linecap="round" stroke-linejoin="round" stroke-miterlimit="4" fill="none" d="M 265.8,5.87 L 313.8,5.87 313.8,53.87 265.8,53.87 265.8,5.87 Z M 265.8,5.87" />
    <path id="bezier13" stroke="none" fill="rgb(193, 193, 193)" filter="url(#shadow-outer)" d="M 313.8,5.87 L 361.8,5.87 361.8,53.87 313.8,53.87 313.8,5.87 Z M 313.8,5.87" />
    <path id="bezier14" stroke="rgb(68, 68, 68)" stroke-width="1.33" stroke-linecap="round" stroke-linejoin="round" stroke-miterlimit="4" fill="none" d="M 313.8,5.87 L 361.8,5.87 361.8,53.87 313.8,53.87 313.8,5.87 Z M 313.8,5.87" />
    <path id="bezier15" stroke="none" fill="rgb(193, 193, 193)" filter="url(#shadow-outer)" d="M 381,5.87 L 429,5.87 429,53.87 381,53.87 381,5.87 Z M 381,5.87" />
    <path id="bezier16" stroke="rgb(68, 68, 68)" stroke-width="1.33" stroke-linecap="round" stroke-linejoin="round" stroke-miterlimit="4" fill="none" d="M 381,5.87 L 429,5.87 429,53.87 381,53.87 381,5.87 Z M 381,5.87" />
    <path id="bezier17" stroke="none" fill="rgb(193, 193, 193)" filter="url(#shadow-outer)" d="M 429,5.87 L 477,5.87 477,53.87 429,53.87 429,5.87 Z M 429,5.87" />
    <path id="bezier18" stroke="rgb(68, 68, 68)" stroke-width="1.33" stroke-linecap="round" stroke-linejoin="round" stroke-miterlimit="4" fill="none" d="M 429,5.87 L 477,5.87 477,53.87 429,53.87 429,5.87 Z M 429,5.87" />
    <path id="bezier19" stroke="none" fill="rgb(255, 255, 255)" filter="url(#shadow-outer)" d="M 477,5.87 L 525,5.87 525,53.87 477,53.87 477,5.87 Z M 477,5.87" />
    <path id="bezier20" stroke="rgb(68, 68, 68)" stroke-width="1.33" stroke-linecap="round" stroke-linejoin="round" stroke-miterlimit="4" fill="none" d="M 477,5.87 L 525,5.87 525,53.87 477,53.87 477,5.87 Z M 477,5.87" />
    <path id="bezier21" stroke="none" fill="rgb(255, 255, 255)" filter="url(#shadow-outer)" d="M 525,5.87 L 573,5.87 573,53.87 525,53.87 525,5.87 Z M 525,5.87" />
    <path id="bezier22" stroke="rgb(68, 68, 68)" stroke-width="1.33" stroke-linecap="round" stroke-linejoin="round" stroke-miterlimit="4" fill="none" d="M 525,5.87 L 573,5.87 573,53.87 525,53.87 525,5.87 Z M 525,5.87" />
    <path id="bezier23" stroke="none" fill="rgb(193, 193, 193)" filter="url(#shadow-outer)" d="M 573,5.87 L 621,5.87 621,53.87 573,53.87 573,5.87 Z M 573,5.87" />
    <path id="bezier24" stroke="rgb(68, 68, 68)" stroke-width="1.33" stroke-linecap="round" stroke-linejoin="round" stroke-miterlimit="4" fill="none" d="M 573,5.87 L 621,5.87 621,53.87 573,53.87 573,5.87 Z M 573,5.87" />
    <rect id="rectangle14" stroke="none" fill="rgb(193, 193, 193)" filter="url(#shadow-outer)" x="245" y="73.07" width="48" height="48" />
    <rect id="rectangle15" stroke="rgb(68, 68, 68)" stroke-width="1.33" fill="none" x="245" y="73.07" width="48" height="48" />
    <rect id="rectangle17" stroke="none" fill="rgb(193, 193, 193)" filter="url(#shadow-outer)" x="293" y="73.07" width="48" height="48" />
    <rect id="rectangle18" stroke="rgb(68, 68, 68)" stroke-width="1.33" fill="none" x="293" y="73.07" width="48" height="48" />
    <rect id="rectangle20" stroke="none" fill="rgb(193, 193, 193)" filter="url(#shadow-outer)" x="341" y="73.07" width="48" height="48" />
    <rect id="rectangle21" stroke="rgb(68, 68, 68)" stroke-width="1.33" fill="none" x="341" y="73.07" width="48" height="48" />
    <rect id="rectangle2" stroke="none" fill="none" x="25" y="20" width="48" height="32" />
    <text fill="rgb(68, 68, 68)" font-family="Varela, sans-serif" font-size="16" x="43.98" y="20">
        <tspan x="43.98" y="36">0</tspan>
    </text>
    <rect id="rectangle3" stroke="none" fill="none" x="73" y="20" width="48" height="32" />
    <text fill="rgb(68, 68, 68)" font-family="Varela, sans-serif" font-size="16" x="91.98" y="20">
        <tspan x="91.98" y="36">1</tspan>
    </text>
    <rect id="rectangle4" stroke="none" fill="none" x="121" y="20" width="48" height="32" />
    <text fill="rgb(68, 68, 68)" font-family="Varela, sans-serif" font-size="16" x="139.98" y="20">
        <tspan x="139.98" y="36">1</tspan>
    </text>
    <rect id="rectangle5" stroke="none" fill="none" x="169" y="20" width="48" height="32" />
    <text fill="rgb(68, 68, 68)" font-family="Varela, sans-serif" font-size="16" x="187.98" y="20">
        <tspan x="187.98" y="36">2</tspan>
    </text>
    <rect id="rectangle6" stroke="none" fill="none" x="217" y="20" width="48" height="32" />
    <text fill="rgb(68, 68, 68)" font-family="Varela, sans-serif" font-size="16" x="235.98" y="20">
        <tspan x="235.98" y="36">3</tspan>
    </text>
    <rect id="rectangle7" stroke="none" fill="none" x="265" y="20" width="48" height="32" />
    <text fill="rgb(68, 68, 68)" font-family="Varela, sans-serif" font-size="16" x="283.98" y="20">
        <tspan x="283.98" y="36">5</tspan>
    </text>
    <rect id="rectangle8" stroke="none" fill="none" x="313" y="20" width="48" height="32" />
    <text fill="rgb(68, 68, 68)" font-family="Varela, sans-serif" font-size="16" x="331.98" y="20">
        <tspan x="331.98" y="36">8</tspan>
    </text>
    <rect id="rectangle9" stroke="none" fill="none" x="380" y="20" width="49" height="32" />
    <text fill="rgb(68, 68, 68)" font-family="Varela, sans-serif" font-size="16" x="399.48" y="20">
        <tspan x="399.48" y="36">0</tspan>
    </text>
    <rect id="rectangle10" stroke="none" fill="none" x="428" y="20" width="49" height="32" />
    <text fill="rgb(68, 68, 68)" font-family="Varela, sans-serif" font-size="16" x="447.48" y="20">
        <tspan x="447.48" y="36">2</tspan>
    </text>
    <rect id="rectangle11" stroke="none" fill="none" x="476" y="20" width="49" height="32" />
    <text fill="rgb(68, 68, 68)" font-family="Varela, sans-serif" font-size="16" x="495.48" y="20">
        <tspan x="495.48" y="36">4</tspan>
    </text>
    <rect id="rectangle12" stroke="none" fill="none" x="524" y="20" width="49" height="32" />
    <text fill="rgb(68, 68, 68)" font-family="Varela, sans-serif" font-size="16" x="543.48" y="20">
        <tspan x="543.48" y="36">6</tspan>
    </text>
    <rect id="rectangle13" stroke="none" fill="none" x="572" y="20" width="49" height="32" />
    <text fill="rgb(68, 68, 68)" font-family="Varela, sans-serif" font-size="16" x="591.48" y="20">
        <tspan x="591.48" y="36">8</tspan>
    </text>
    <rect id="rectangle16" stroke="none" fill="none" x="244" y="87" width="49" height="32" />
    <text fill="rgb(68, 68, 68)" font-family="Varela, sans-serif" font-size="16" x="263.48" y="87">
        <tspan x="263.48" y="103">0</tspan>
    </text>
    <rect id="rectangle19" stroke="none" fill="none" x="292" y="87" width="48" height="32" />
    <text fill="rgb(68, 68, 68)" font-family="Varela, sans-serif" font-size="16" x="310.98" y="87">
        <tspan x="310.98" y="103">2</tspan>
    </text>
    <rect id="rectangle22" stroke="none" fill="none" x="339" y="87" width="49" height="32" />
    <text fill="rgb(68, 68, 68)" font-family="Varela, sans-serif" font-size="16" x="358.48" y="87">
        <tspan x="358.48" y="103">8</tspan>
    </text>
    <rect id="rectangle23" stroke="none" fill="none" x="25" y="87" width="204" height="30" />
    <text fill="rgb(68, 68, 68)" font-family="Varela, sans-serif" font-size="14.67" x="56.55" y="87">
        <tspan x="56.55" y="102">_(fibs).intersection(even)</tspan>
    </text>
</svg>
