<?xml version="1.0" encoding="UTF-8"?>
<!DOCTYPE svg PUBLIC "-//W3C//DTD SVG 1.1//EN" "http://www.w3.org/Graphics/SVG/1.1/DTD/svg11.dtd">
<svg version="1.1" xmlns="http://www.w3.org/2000/svg" xmlns:xlink="http://www.w3.org/1999/xlink" width="600" height="190"  xml:space="preserve">
    <defs>
        <filter id="shadow-outer" filterUnits="userSpaceOnUse">
            <feGaussianBlur stdDeviation="2.5" />
            <feOffset dx="0.1" dy="3.1" result="blur" />
            <feFlood flood-color="rgb(0, 0, 0)" flood-opacity="0.5" />
            <feComposite in2="blur" operator="in" result="colorShadow" />
            <feComposite in="SourceGraphic" in2="colorShadow" operator="over" />
        </filter>
        <filter id="smallShadow-outer" filterUnits="userSpaceOnUse">
            <feGaussianBlur stdDeviation="2" />
            <feOffset dx="0.1" dy="2.1" result="blur" />
            <feFlood flood-color="rgb(0, 0, 0)" flood-opacity="0.5" />
            <feComposite in2="blur" operator="in" result="colorShadow" />
            <feComposite in="SourceGraphic" in2="colorShadow" operator="over" />
        </filter>
    </defs>
    <rect id="rectangle6" stroke="none" fill="rgb(255, 255, 255)" filter="url(#shadow-outer)" x="50.65" y="29.87" width="48" height="48" />
    <rect id="rectangle7" stroke="rgb(68, 68, 68)" stroke-width="1.33" fill="none" x="50.65" y="29.87" width="48" height="48" />
    <path id="bezier" stroke="none" fill="rgb(255, 255, 255)" filter="url(#shadow-outer)" d="M 98.65,29.87 L 146.65,29.87 146.65,77.87 98.65,77.87 98.65,29.87 Z M 98.65,29.87" />
    <path id="bezier2" stroke="rgb(68, 68, 68)" stroke-width="1.33" stroke-linecap="round" stroke-linejoin="round" stroke-miterlimit="4" fill="none" d="M 98.65,29.87 L 146.65,29.87 146.65,77.87 98.65,77.87 98.65,29.87 Z M 98.65,29.87" />
    <rect id="rectangle10" stroke="none" fill="rgb(255, 255, 255)" filter="url(#shadow-outer)" x="146.65" y="29.87" width="48" height="48" />
    <rect id="rectangle11" stroke="rgb(68, 68, 68)" stroke-width="1.33" fill="none" x="146.65" y="29.87" width="48" height="48" />
    <path id="bezier3" stroke="none" fill="rgb(255, 255, 255)" filter="url(#shadow-outer)" d="M 194.65,29.87 L 242.65,29.87 242.65,77.87 194.65,77.87 194.65,29.87 Z M 194.65,29.87" />
    <path id="bezier4" stroke="rgb(68, 68, 68)" stroke-width="1.33" stroke-linecap="round" stroke-linejoin="round" stroke-miterlimit="4" fill="none" d="M 194.65,29.87 L 242.65,29.87 242.65,77.87 194.65,77.87 194.65,29.87 Z M 194.65,29.87" />
    <path id="bezier5" stroke="none" fill="rgb(255, 255, 255)" filter="url(#shadow-outer)" d="M 242.65,29.87 L 290.65,29.87 290.65,77.87 242.65,77.87 242.65,29.87 Z M 242.65,29.87" />
    <path id="bezier6" stroke="rgb(68, 68, 68)" stroke-width="1.33" stroke-linecap="round" stroke-linejoin="round" stroke-miterlimit="4" fill="none" d="M 242.65,29.87 L 290.65,29.87 290.65,77.87 242.65,77.87 242.65,29.87 Z M 242.65,29.87" />
    <rect id="rectangle15" stroke="none" fill="rgb(255, 255, 255)" filter="url(#shadow-outer)" x="319.45" y="29.87" width="48" height="48" />
    <rect id="rectangle16" stroke="rgb(68, 68, 68)" stroke-width="1.33" fill="none" x="319.45" y="29.87" width="48" height="48" />
    <rect id="rectangle18" stroke="none" fill="rgb(255, 255, 255)" filter="url(#shadow-outer)" x="367.45" y="29.87" width="48" height="48" />
    <rect id="rectangle19" stroke="rgb(68, 68, 68)" stroke-width="1.33" fill="none" x="367.45" y="29.87" width="48" height="48" />
    <rect id="rectangle21" stroke="none" fill="rgb(255, 255, 255)" filter="url(#shadow-outer)" x="415.45" y="29.87" width="48" height="48" />
    <rect id="rectangle22" stroke="rgb(68, 68, 68)" stroke-width="1.33" fill="none" x="415.45" y="29.87" width="48" height="48" />
    <rect id="rectangle24" stroke="none" fill="rgb(255, 255, 255)" filter="url(#shadow-outer)" x="463.45" y="29.87" width="48" height="48" />
    <rect id="rectangle25" stroke="rgb(68, 68, 68)" stroke-width="1.33" fill="none" x="463.45" y="29.87" width="48" height="48" />
    <rect id="rectangle27" stroke="none" fill="rgb(255, 255, 255)" filter="url(#shadow-outer)" x="511.45" y="29.87" width="48" height="48" />
    <rect id="rectangle28" stroke="rgb(68, 68, 68)" stroke-width="1.33" fill="none" x="511.45" y="29.87" width="48" height="48" />
    <path id="bezier7" stroke="none" fill="rgb(255, 255, 255)" filter="url(#shadow-outer)" d="M 223.45,125.87 L 290.65,125.87 290.65,173.87 223.45,173.87 223.45,125.87 Z M 223.45,125.87" />
    <path id="bezier8" stroke="rgb(68, 68, 68)" stroke-width="1.33" stroke-linecap="round" stroke-linejoin="round" stroke-miterlimit="4" fill="none" d="M 223.45,125.87 L 290.65,125.87 290.65,173.87 223.45,173.87 223.45,125.87 Z M 223.45,125.87" />
    <g id="group3">
        <path id="bezier9" stroke="none" fill="rgb(255, 255, 255)" filter="url(#smallShadow-outer)" d="M 233.05,137.87 L 281.05,137.87 281.05,161.87 233.05,161.87 233.05,137.87 Z M 233.05,137.87" />
    </g>
    <path id="bezier10" stroke="none" fill="rgb(255, 255, 255)" d="M 233.05,137.87 L 257.05,137.87 257.05,161.87 233.05,161.87 233.05,137.87 Z M 233.05,137.87" />
    <path id="bezier11" stroke="rgb(68, 68, 68)" stroke-width="1.33" stroke-linecap="round" stroke-linejoin="round" stroke-miterlimit="4" fill="none" d="M 233.05,137.87 L 257.05,137.87 257.05,161.87 233.05,161.87 233.05,137.87 Z M 233.05,137.87" />
    <rect id="rectangle36" stroke="none" fill="rgb(255, 255, 255)" x="257.05" y="137.87" width="24" height="24" />
    <rect id="rectangle37" stroke="rgb(68, 68, 68)" stroke-width="1.33" fill="none" x="257.05" y="137.87" width="24" height="24" />
    <path id="bezier12" stroke="none" fill="rgb(255, 255, 255)" filter="url(#shadow-outer)" d="M 290.65,125.87 L 357.85,125.87 357.85,173.87 290.65,173.87 290.65,125.87 Z M 290.65,125.87" />
    <path id="bezier13" stroke="rgb(68, 68, 68)" stroke-width="1.33" stroke-linecap="round" stroke-linejoin="round" stroke-miterlimit="4" fill="none" d="M 290.65,125.87 L 357.85,125.87 357.85,173.87 290.65,173.87 290.65,125.87 Z M 290.65,125.87" />
    <g id="group4">
        <rect id="rectangle39" stroke="none" fill="rgb(255, 255, 255)" filter="url(#smallShadow-outer)" x="300.25" y="137.87" width="48" height="24" />
    </g>
    <rect id="rectangle40" stroke="none" fill="rgb(255, 255, 255)" x="300.25" y="137.87" width="24" height="24" />
    <rect id="rectangle41" stroke="rgb(68, 68, 68)" stroke-width="1.33" fill="none" x="300.25" y="137.87" width="24" height="24" />
    <rect id="rectangle43" stroke="none" fill="rgb(255, 255, 255)" x="324.25" y="137.87" width="24" height="24" />
    <rect id="rectangle44" stroke="rgb(68, 68, 68)" stroke-width="1.33" fill="none" x="324.25" y="137.87" width="24" height="24" />
    <path id="bezier14" stroke="none" fill="rgb(255, 255, 255)" filter="url(#shadow-outer)" d="M 357.85,125.87 L 425.05,125.87 425.05,173.87 357.85,173.87 357.85,125.87 Z M 357.85,125.87" />
    <path id="bezier15" stroke="rgb(68, 68, 68)" stroke-width="1.33" stroke-linecap="round" stroke-linejoin="round" stroke-miterlimit="4" fill="none" d="M 357.85,125.87 L 425.05,125.87 425.05,173.87 357.85,173.87 357.85,125.87 Z M 357.85,125.87" />
    <g id="group5">
        <rect id="rectangle46" stroke="none" fill="rgb(255, 255, 255)" filter="url(#smallShadow-outer)" x="367.45" y="137.87" width="48" height="24" />
    </g>
    <rect id="rectangle47" stroke="none" fill="rgb(255, 255, 255)" x="367.45" y="137.87" width="24" height="24" />
    <rect id="rectangle48" stroke="rgb(68, 68, 68)" stroke-width="1.33" fill="none" x="367.45" y="137.87" width="24" height="24" />
    <rect id="rectangle50" stroke="none" fill="rgb(255, 255, 255)" x="391.45" y="137.87" width="24" height="24" />
    <rect id="rectangle51" stroke="rgb(68, 68, 68)" stroke-width="1.33" fill="none" x="391.45" y="137.87" width="24" height="24" />
    <path id="bezier16" stroke="none" fill="rgb(255, 255, 255)" filter="url(#shadow-outer)" d="M 425.05,125.87 L 492.25,125.87 492.25,173.87 425.05,173.87 425.05,125.87 Z M 425.05,125.87" />
    <path id="bezier17" stroke="rgb(68, 68, 68)" stroke-width="1.33" stroke-linecap="round" stroke-linejoin="round" stroke-miterlimit="4" fill="none" d="M 425.05,125.87 L 492.25,125.87 492.25,173.87 425.05,173.87 425.05,125.87 Z M 425.05,125.87" />
    <g id="group6">
        <rect id="rectangle53" stroke="none" fill="rgb(255, 255, 255)" filter="url(#smallShadow-outer)" x="434.65" y="137.87" width="48" height="24" />
    </g>
    <rect id="rectangle54" stroke="none" fill="rgb(255, 255, 255)" x="434.65" y="137.87" width="24" height="24" />
    <rect id="rectangle55" stroke="rgb(68, 68, 68)" stroke-width="1.33" fill="none" x="434.65" y="137.87" width="24" height="24" />
    <rect id="rectangle57" stroke="none" fill="rgb(255, 255, 255)" x="458.65" y="137.87" width="24" height="24" />
    <rect id="rectangle58" stroke="rgb(68, 68, 68)" stroke-width="1.33" fill="none" x="458.65" y="137.87" width="24" height="24" />
    <path id="bezier18" stroke="none" fill="rgb(255, 255, 255)" filter="url(#shadow-outer)" d="M 492.25,125.87 L 559.45,125.87 559.45,173.87 492.25,173.87 492.25,125.87 Z M 492.25,125.87" />
    <path id="bezier19" stroke="rgb(68, 68, 68)" stroke-width="1.33" stroke-linecap="round" stroke-linejoin="round" stroke-miterlimit="4" fill="none" d="M 492.25,125.87 L 559.45,125.87 559.45,173.87 492.25,173.87 492.25,125.87 Z M 492.25,125.87" />
    <g id="group7">
        <path id="bezier20" stroke="none" fill="rgb(255, 255, 255)" filter="url(#smallShadow-outer)" d="M 501.85,137.87 L 549.85,137.87 549.85,161.87 501.85,161.87 501.85,137.87 Z M 501.85,137.87" />
    </g>
    <rect id="rectangle60" stroke="none" fill="rgb(255, 255, 255)" x="501.85" y="137.87" width="24" height="24" />
    <rect id="rectangle61" stroke="rgb(68, 68, 68)" stroke-width="1.33" fill="none" x="501.85" y="137.87" width="24" height="24" />
    <path id="bezier21" stroke="none" fill="rgb(255, 255, 255)" d="M 525.85,137.87 L 549.85,137.87 549.85,161.87 525.85,161.87 525.85,137.87 Z M 525.85,137.87" />
    <path id="bezier22" stroke="rgb(68, 68, 68)" stroke-width="1.33" stroke-linecap="round" stroke-linejoin="round" stroke-miterlimit="4" fill="none" d="M 525.85,137.87 L 549.85,137.87 549.85,161.87 525.85,161.87 525.85,137.87 Z M 525.85,137.87" />
    <path id="bezier23" stroke="rgb(193, 193, 193)" stroke-width="1.33" stroke-linecap="round" stroke-linejoin="round" stroke-miterlimit="4" fill="none" d="M 98.65,67.39 L 221.55,136.63" />
    <path id="bezier24" stroke="rgb(193, 193, 193)" stroke-width="1.33" stroke-linecap="round" stroke-linejoin="round" stroke-miterlimit="4" fill="none" d="M 324.85,77.87 L 286.44,127.43" />
    <path id="bezier25" stroke="rgb(193, 193, 193)" stroke-width="1.33" stroke-linecap="round" stroke-linejoin="round" stroke-miterlimit="4" fill="none" d="M 146.65,66.02 L 288.48,137.83" />
    <path id="bezier26" stroke="rgb(193, 193, 193)" stroke-width="1.33" stroke-linecap="round" stroke-linejoin="round" stroke-miterlimit="4" fill="none" d="M 377.65,77.87 L 349.73,126.42" />
    <path id="bezier27" stroke="rgb(193, 193, 193)" stroke-width="1.33" stroke-linecap="round" stroke-linejoin="round" stroke-miterlimit="4" fill="none" d="M 194.65,64.9 L 355.46,138.84" />
    <path id="bezier28" stroke="rgb(193, 193, 193)" stroke-width="1.33" stroke-linecap="round" stroke-linejoin="round" stroke-miterlimit="4" fill="none" d="M 430.45,77.87 L 412.59,125.51" />
    <path id="bezier29" stroke="rgb(193, 193, 193)" stroke-width="1.33" stroke-linecap="round" stroke-linejoin="round" stroke-miterlimit="4" fill="none" d="M 242.65,63.97 L 422.49,139.69" />
    <path id="bezier30" stroke="rgb(193, 193, 193)" stroke-width="1.33" stroke-linecap="round" stroke-linejoin="round" stroke-miterlimit="4" fill="none" d="M 483.25,77.87 L 475.03,124.86" />
    <path id="bezier31" stroke="rgb(193, 193, 193)" stroke-width="1.33" stroke-linecap="round" stroke-linejoin="round" stroke-miterlimit="4" fill="none" d="M 290.65,63.19 L 489.55,140.43" />
    <path id="bezier32" stroke="rgb(193, 193, 193)" stroke-width="1.33" stroke-linecap="round" stroke-linejoin="round" stroke-miterlimit="4" fill="none" d="M 536.05,77.87 L 537.22,124.67" />
    <path id="bezier33" stroke="none" fill="rgb(193, 193, 193)" d="M 218.33,140.75 L 223.13,132.13 231.77,142.67 218.33,140.75 Z M 218.33,140.75" />
    <path id="bezier35" stroke="none" fill="rgb(193, 193, 193)" d="M 282.58,124 L 290.34,130.09 278.58,136.97 282.58,124 Z M 282.58,124" />
    <path id="bezier37" stroke="none" fill="rgb(193, 193, 193)" d="M 285.41,142.05 L 289.75,133.19 298.93,143.26 285.41,142.05 Z M 285.41,142.05" />
    <path id="bezier39" stroke="none" fill="rgb(193, 193, 193)" d="M 352.91,142.97 L 356.94,133.97 366.46,143.71 352.91,142.97 Z M 352.91,142.97" />
    <path id="bezier41" stroke="none" fill="rgb(193, 193, 193)" d="M 345.66,123.36 L 354.28,128.16 343.74,136.8 345.66,123.36 Z M 345.66,123.36" />
    <path id="bezier43" stroke="none" fill="rgb(193, 193, 193)" d="M 408.14,123.29 L 417.41,126.68 408.35,136.87 408.14,123.29 Z M 408.14,123.29" />
    <path id="bezier45" stroke="none" fill="rgb(193, 193, 193)" d="M 420.07,143.92 L 423.95,134.84 433.64,144.42 420.07,143.92 Z M 420.07,143.92" />
    <path id="bezier47" stroke="none" fill="rgb(193, 193, 193)" d="M 470.27,123.44 L 479.99,125.17 472.84,136.77 470.27,123.44 Z M 470.27,123.44" />
    <path id="bezier49" stroke="none" fill="rgb(193, 193, 193)" d="M 487.19,144.92 L 490.75,135.71 500.77,144.94 487.19,144.92 Z M 487.19,144.92" />
    <path id="bezier51" stroke="none" fill="rgb(193, 193, 193)" d="M 532.4,124.2 L 542.26,123.88 537.68,136.71 532.4,124.2 Z M 532.4,124.2" />
    <rect id="rectangle2" stroke="none" fill="none" x="143" y="6" width="70" height="29" />
    <text fill="rgb(68, 68, 68)" font-family="Varela, sans-serif" font-size="14.67" x="143" y="6">
        <tspan x="143" y="21">naturals</tspan>
    </text>
    <rect id="rectangle5" stroke="none" fill="none" x="415.66" y="5.64" width="88" height="29.33" />
    <text fill="rgb(68, 68, 68)" font-family="Varela, sans-serif" font-size="14.67" x="415.66" y="5.64">
        <tspan x="415.66" y="20.64">primes</tspan>
    </text>
    <rect id="rectangle8" stroke="none" fill="none" x="51" y="44" width="47" height="32" />
    <text fill="rgb(68, 68, 68)" font-family="Varela, sans-serif" font-size="16" x="69.48" y="44">
        <tspan x="69.48" y="60">1</tspan>
    </text>
    <rect id="rectangle9" stroke="none" fill="none" x="99" y="44" width="47" height="32" />
    <text fill="rgb(68, 68, 68)" font-family="Varela, sans-serif" font-size="16" x="117.48" y="44">
        <tspan x="117.48" y="60">2</tspan>
    </text>
    <rect id="rectangle12" stroke="none" fill="none" x="147" y="44" width="47" height="32" />
    <text fill="rgb(68, 68, 68)" font-family="Varela, sans-serif" font-size="16" x="165.48" y="44">
        <tspan x="165.48" y="60">3</tspan>
    </text>
    <rect id="rectangle13" stroke="none" fill="none" x="194" y="44" width="48" height="32" />
    <text fill="rgb(68, 68, 68)" font-family="Varela, sans-serif" font-size="16" x="212.98" y="44">
        <tspan x="212.98" y="60">4</tspan>
    </text>
    <rect id="rectangle14" stroke="none" fill="none" x="243" y="44" width="47" height="32" />
    <text fill="rgb(68, 68, 68)" font-family="Varela, sans-serif" font-size="16" x="261.48" y="44">
        <tspan x="261.48" y="60">5</tspan>
    </text>
    <rect id="rectangle17" stroke="none" fill="none" x="319" y="44" width="48" height="32" />
    <text fill="rgb(68, 68, 68)" font-family="Varela, sans-serif" font-size="16" x="337.98" y="44">
        <tspan x="337.98" y="60">2</tspan>
    </text>
    <rect id="rectangle20" stroke="none" fill="none" x="367" y="44" width="48" height="32" />
    <text fill="rgb(68, 68, 68)" font-family="Varela, sans-serif" font-size="16" x="385.98" y="44">
        <tspan x="385.98" y="60">3</tspan>
    </text>
    <rect id="rectangle23" stroke="none" fill="none" x="415" y="44" width="48" height="32" />
    <text fill="rgb(68, 68, 68)" font-family="Varela, sans-serif" font-size="16" x="433.98" y="44">
        <tspan x="433.98" y="60">5</tspan>
    </text>
    <rect id="rectangle26" stroke="none" fill="none" x="463" y="44" width="48" height="32" />
    <text fill="rgb(68, 68, 68)" font-family="Varela, sans-serif" font-size="16" x="481.98" y="44">
        <tspan x="481.98" y="60">7</tspan>
    </text>
    <rect id="rectangle29" stroke="none" fill="none" x="511" y="44" width="48" height="32" />
    <text fill="rgb(68, 68, 68)" font-family="Varela, sans-serif" font-size="16" x="524.95" y="44">
        <tspan x="524.95" y="60">11</tspan>
    </text>
    <rect id="rectangle30" stroke="none" fill="none" x="50" y="140" width="160" height="29" />
    <text fill="rgb(68, 68, 68)" font-family="Varela, sans-serif" font-size="14.67" x="60.25" y="140">
        <tspan x="60.25" y="155">_.zip(naturals,primes)</tspan>
    </text>
    <rect id="rectangle35" stroke="none" fill="none" x="233" y="142" width="24" height="24" />
    <text fill="rgb(68, 68, 68)" font-family="Varela, sans-serif" font-size="12" x="241.23" y="142">
        <tspan x="241.23" y="154">1</tspan>
    </text>
    <rect id="rectangle38" stroke="none" fill="none" x="257" y="142" width="24" height="24" />
    <text fill="rgb(68, 68, 68)" font-family="Varela, sans-serif" font-size="12" x="265.23" y="142">
        <tspan x="265.23" y="154">2</tspan>
    </text>
    <rect id="rectangle42" stroke="none" fill="none" x="300" y="142" width="24" height="24" />
    <text fill="rgb(68, 68, 68)" font-family="Varela, sans-serif" font-size="12" x="308.23" y="142">
        <tspan x="308.23" y="154">2</tspan>
    </text>
    <rect id="rectangle45" stroke="none" fill="none" x="324" y="142" width="24" height="24" />
    <text fill="rgb(68, 68, 68)" font-family="Varela, sans-serif" font-size="12" x="332.23" y="142">
        <tspan x="332.23" y="154">3</tspan>
    </text>
    <rect id="rectangle49" stroke="none" fill="none" x="367" y="142" width="24" height="24" />
    <text fill="rgb(68, 68, 68)" font-family="Varela, sans-serif" font-size="12" x="375.23" y="142">
        <tspan x="375.23" y="154">3</tspan>
    </text>
    <rect id="rectangle52" stroke="none" fill="none" x="391" y="142" width="24" height="24" />
    <text fill="rgb(68, 68, 68)" font-family="Varela, sans-serif" font-size="12" x="399.23" y="142">
        <tspan x="399.23" y="154">5</tspan>
    </text>
    <rect id="rectangle56" stroke="none" fill="none" x="434" y="142" width="24" height="24" />
    <text fill="rgb(68, 68, 68)" font-family="Varela, sans-serif" font-size="12" x="442.23" y="142">
        <tspan x="442.23" y="154">4</tspan>
    </text>
    <rect id="rectangle59" stroke="none" fill="none" x="459" y="142" width="23" height="24" />
    <text fill="rgb(68, 68, 68)" font-family="Varela, sans-serif" font-size="12" x="466.73" y="142">
        <tspan x="466.73" y="154">7</tspan>
    </text>
    <rect id="rectangle62" stroke="none" fill="none" x="502" y="142" width="23" height="24" />
    <text fill="rgb(68, 68, 68)" font-family="Varela, sans-serif" font-size="12" x="509.73" y="142">
        <tspan x="509.73" y="154">5</tspan>
    </text>
    <rect id="rectangle63" stroke="none" fill="none" x="525" y="142" width="25" height="24" />
    <text fill="rgb(68, 68, 68)" font-family="Varela, sans-serif" font-size="12" x="529.96" y="142">
        <tspan x="529.96" y="154">11</tspan>
    </text>
</svg>
