<?xml version="1.0" encoding="UTF-8"?>
<!DOCTYPE svg PUBLIC "-//W3C//DTD SVG 1.1//EN" "http://www.w3.org/Graphics/SVG/1.1/DTD/svg11.dtd">
<svg version="1.1" xmlns="http://www.w3.org/2000/svg" xmlns:xlink="http://www.w3.org/1999/xlink" width="600" height="132"  xml:space="preserve">
    <defs>
        <filter id="shadow-outer" filterUnits="userSpaceOnUse">
            <feGaussianBlur stdDeviation="2.5" />
            <feOffset dx="0.1" dy="3.1" result="blur" />
            <feFlood flood-color="rgb(0, 0, 0)" flood-opacity="0.5" />
            <feComposite in2="blur" operator="in" result="colorShadow" />
            <feComposite in="SourceGraphic" in2="colorShadow" operator="over" />
        </filter>
    </defs>
    <path id="bezier" stroke="none" fill="rgb(193, 193, 193)" filter="url(#shadow-outer)" d="M 150.33,6.67 L 198.33,6.67 198.33,54.67 150.33,54.67 150.33,6.67 Z M 150.33,6.67" />
    <path id="bezier2" stroke="rgb(68, 68, 68)" stroke-width="1.33" stroke-linecap="round" stroke-linejoin="round" stroke-miterlimit="4" fill="none" d="M 150.33,6.67 L 198.33,6.67 198.33,54.67 150.33,54.67 150.33,6.67 Z M 150.33,6.67" />
    <path id="bezier3" stroke="none" fill="rgb(193, 193, 193)" filter="url(#shadow-outer)" d="M 198.33,6.67 L 246.33,6.67 246.33,54.67 198.33,54.67 198.33,6.67 Z M 198.33,6.67" />
    <path id="bezier4" stroke="rgb(68, 68, 68)" stroke-width="1.33" stroke-linecap="round" stroke-linejoin="round" stroke-miterlimit="4" fill="none" d="M 198.33,6.67 L 246.33,6.67 246.33,54.67 198.33,54.67 198.33,6.67 Z M 198.33,6.67" />
    <path id="bezier5" stroke="none" fill="rgb(255, 255, 255)" filter="url(#shadow-outer)" d="M 246.33,6.67 L 294.33,6.67 294.33,54.67 246.33,54.67 246.33,6.67 Z M 246.33,6.67" />
    <path id="bezier6" stroke="rgb(68, 68, 68)" stroke-width="1.33" stroke-linecap="round" stroke-linejoin="round" stroke-miterlimit="4" fill="none" d="M 246.33,6.67 L 294.33,6.67 294.33,54.67 246.33,54.67 246.33,6.67 Z M 246.33,6.67" />
    <path id="bezier7" stroke="none" fill="rgb(193, 193, 193)" filter="url(#shadow-outer)" d="M 294.33,6.67 L 342.33,6.67 342.33,54.67 294.33,54.67 294.33,6.67 Z M 294.33,6.67" />
    <path id="bezier8" stroke="rgb(68, 68, 68)" stroke-width="1.33" stroke-linecap="round" stroke-linejoin="round" stroke-miterlimit="4" fill="none" d="M 294.33,6.67 L 342.33,6.67 342.33,54.67 294.33,54.67 294.33,6.67 Z M 294.33,6.67" />
    <path id="bezier9" stroke="none" fill="rgb(193, 193, 193)" filter="url(#shadow-outer)" d="M 342.33,6.67 L 390.33,6.67 390.33,54.67 342.33,54.67 342.33,6.67 Z M 342.33,6.67" />
    <path id="bezier10" stroke="rgb(68, 68, 68)" stroke-width="1.33" stroke-linecap="round" stroke-linejoin="round" stroke-miterlimit="4" fill="none" d="M 342.33,6.67 L 390.33,6.67 390.33,54.67 342.33,54.67 342.33,6.67 Z M 342.33,6.67" />
    <path id="bezier11" stroke="none" fill="rgb(193, 193, 193)" filter="url(#shadow-outer)" d="M 390.33,6.67 L 438.33,6.67 438.33,54.67 390.33,54.67 390.33,6.67 Z M 390.33,6.67" />
    <path id="bezier12" stroke="rgb(68, 68, 68)" stroke-width="1.33" stroke-linecap="round" stroke-linejoin="round" stroke-miterlimit="4" fill="none" d="M 390.33,6.67 L 438.33,6.67 438.33,54.67 390.33,54.67 390.33,6.67 Z M 390.33,6.67" />
    <path id="bezier13" stroke="none" fill="rgb(193, 193, 193)" filter="url(#shadow-outer)" d="M 438.33,6.67 L 486.33,6.67 486.33,54.67 438.33,54.67 438.33,6.67 Z M 438.33,6.67" />
    <path id="bezier14" stroke="rgb(68, 68, 68)" stroke-width="1.33" stroke-linecap="round" stroke-linejoin="round" stroke-miterlimit="4" fill="none" d="M 438.33,6.67 L 486.33,6.67 486.33,54.67 438.33,54.67 438.33,6.67 Z M 438.33,6.67" />
    <path id="bezier15" stroke="none" fill="rgb(193, 193, 193)" filter="url(#shadow-outer)" d="M 150.33,73.87 L 198.33,73.87 198.33,121.87 150.33,121.87 150.33,73.87 Z M 150.33,73.87" />
    <path id="bezier16" stroke="rgb(68, 68, 68)" stroke-width="1.33" stroke-linecap="round" stroke-linejoin="round" stroke-miterlimit="4" fill="none" d="M 150.33,73.87 L 198.33,73.87 198.33,121.87 150.33,121.87 150.33,73.87 Z M 150.33,73.87" />
    <path id="bezier17" stroke="none" fill="rgb(193, 193, 193)" filter="url(#shadow-outer)" d="M 198.33,73.87 L 246.33,73.87 246.33,121.87 198.33,121.87 198.33,73.87 Z M 198.33,73.87" />
    <path id="bezier18" stroke="rgb(68, 68, 68)" stroke-width="1.33" stroke-linecap="round" stroke-linejoin="round" stroke-miterlimit="4" fill="none" d="M 198.33,73.87 L 246.33,73.87 246.33,121.87 198.33,121.87 198.33,73.87 Z M 198.33,73.87" />
    <path id="bezier19" stroke="none" fill="rgb(193, 193, 193)" filter="url(#shadow-outer)" d="M 246.33,73.87 L 294.33,73.87 294.33,121.87 246.33,121.87 246.33,73.87 Z M 246.33,73.87" />
    <path id="bezier20" stroke="rgb(68, 68, 68)" stroke-width="1.33" stroke-linecap="round" stroke-linejoin="round" stroke-miterlimit="4" fill="none" d="M 246.33,73.87 L 294.33,73.87 294.33,121.87 246.33,121.87 246.33,73.87 Z M 246.33,73.87" />
    <path id="bezier21" stroke="none" fill="rgb(193, 193, 193)" filter="url(#shadow-outer)" d="M 294.33,73.87 L 342.33,73.87 342.33,121.87 294.33,121.87 294.33,73.87 Z M 294.33,73.87" />
    <path id="bezier22" stroke="rgb(68, 68, 68)" stroke-width="1.33" stroke-linecap="round" stroke-linejoin="round" stroke-miterlimit="4" fill="none" d="M 294.33,73.87 L 342.33,73.87 342.33,121.87 294.33,121.87 294.33,73.87 Z M 294.33,73.87" />
    <path id="bezier23" stroke="none" fill="rgb(193, 193, 193)" filter="url(#shadow-outer)" d="M 342.33,73.87 L 390.33,73.87 390.33,121.87 342.33,121.87 342.33,73.87 Z M 342.33,73.87" />
    <path id="bezier24" stroke="rgb(68, 68, 68)" stroke-width="1.33" stroke-linecap="round" stroke-linejoin="round" stroke-miterlimit="4" fill="none" d="M 342.33,73.87 L 390.33,73.87 390.33,121.87 342.33,121.87 342.33,73.87 Z M 342.33,73.87" />
    <path id="bezier25" stroke="none" fill="rgb(193, 193, 193)" filter="url(#shadow-outer)" d="M 390.33,73.87 L 438.33,73.87 438.33,121.87 390.33,121.87 390.33,73.87 Z M 390.33,73.87" />
    <path id="bezier26" stroke="rgb(68, 68, 68)" stroke-width="1.33" stroke-linecap="round" stroke-linejoin="round" stroke-miterlimit="4" fill="none" d="M 390.33,73.87 L 438.33,73.87 438.33,121.87 390.33,121.87 390.33,73.87 Z M 390.33,73.87" />
    <rect id="rectangle2" stroke="none" fill="none" x="150" y="20" width="48" height="32" />
    <text fill="rgb(68, 68, 68)" font-family="Varela, sans-serif" font-size="16" x="168.98" y="20">
        <tspan x="168.98" y="36">0</tspan>
    </text>
    <rect id="rectangle3" stroke="none" fill="none" x="198" y="20" width="48" height="32" />
    <text fill="rgb(68, 68, 68)" font-family="Varela, sans-serif" font-size="16" x="216.98" y="20">
        <tspan x="216.98" y="36">1</tspan>
    </text>
    <rect id="rectangle4" stroke="none" fill="none" x="246" y="20" width="48" height="32" />
    <text fill="rgb(68, 68, 68)" font-family="Varela, sans-serif" font-size="16" x="264.98" y="20">
        <tspan x="264.98" y="36">1</tspan>
    </text>
    <rect id="rectangle5" stroke="none" fill="none" x="294" y="20" width="48" height="32" />
    <text fill="rgb(68, 68, 68)" font-family="Varela, sans-serif" font-size="16" x="312.98" y="20">
        <tspan x="312.98" y="36">2</tspan>
    </text>
    <rect id="rectangle6" stroke="none" fill="none" x="342" y="20" width="48" height="32" />
    <text fill="rgb(68, 68, 68)" font-family="Varela, sans-serif" font-size="16" x="360.98" y="20">
        <tspan x="360.98" y="36">3</tspan>
    </text>
    <rect id="rectangle7" stroke="none" fill="none" x="390" y="20" width="48" height="32" />
    <text fill="rgb(68, 68, 68)" font-family="Varela, sans-serif" font-size="16" x="408.98" y="20">
        <tspan x="408.98" y="36">5</tspan>
    </text>
    <rect id="rectangle8" stroke="none" fill="none" x="438" y="20" width="48" height="32" />
    <text fill="rgb(68, 68, 68)" font-family="Varela, sans-serif" font-size="16" x="456.98" y="20">
        <tspan x="456.98" y="36">8</tspan>
    </text>
    <rect id="rectangle9" stroke="none" fill="none" x="150" y="88" width="48" height="32" />
    <text fill="rgb(68, 68, 68)" font-family="Varela, sans-serif" font-size="16" x="168.98" y="88">
        <tspan x="168.98" y="104">0</tspan>
    </text>
    <rect id="rectangle10" stroke="none" fill="none" x="198" y="88" width="48" height="32" />
    <text fill="rgb(68, 68, 68)" font-family="Varela, sans-serif" font-size="16" x="216.98" y="88">
        <tspan x="216.98" y="104">1</tspan>
    </text>
    <rect id="rectangle11" stroke="none" fill="none" x="246" y="88" width="48" height="32" />
    <text fill="rgb(68, 68, 68)" font-family="Varela, sans-serif" font-size="16" x="264.98" y="88">
        <tspan x="264.98" y="104">2</tspan>
    </text>
    <rect id="rectangle12" stroke="none" fill="none" x="294" y="88" width="48" height="32" />
    <text fill="rgb(68, 68, 68)" font-family="Varela, sans-serif" font-size="16" x="312.98" y="88">
        <tspan x="312.98" y="104">3</tspan>
    </text>
    <rect id="rectangle13" stroke="none" fill="none" x="342" y="88" width="48" height="32" />
    <text fill="rgb(68, 68, 68)" font-family="Varela, sans-serif" font-size="16" x="360.98" y="88">
        <tspan x="360.98" y="104">5</tspan>
    </text>
    <rect id="rectangle14" stroke="none" fill="none" x="390" y="88" width="48" height="32" />
    <text fill="rgb(68, 68, 68)" font-family="Varela, sans-serif" font-size="16" x="408.98" y="88">
        <tspan x="408.98" y="104">8</tspan>
    </text>
    <rect id="rectangle15" stroke="none" fill="none" x="0" y="21" width="125" height="29" />
    <text fill="rgb(68, 68, 68)" font-family="Varela, sans-serif" font-size="14.67" x="99.3" y="21">
        <tspan x="99.3" y="36">fibs</tspan>
    </text>
    <rect id="rectangle17" stroke="none" fill="none" x="0" y="88" width="125" height="29" />
    <text fill="rgb(68, 68, 68)" font-family="Varela, sans-serif" font-size="14.67" x="37.03" y="88">
        <tspan x="37.03" y="103">_(fibs).uniq()</tspan>
    </text>
</svg>
