<?xml version="1.0" encoding="UTF-8"?>
<!DOCTYPE svg PUBLIC "-//W3C//DTD SVG 1.1//EN" "http://www.w3.org/Graphics/SVG/1.1/DTD/svg11.dtd">
<svg version="1.1" xmlns="http://www.w3.org/2000/svg" xmlns:xlink="http://www.w3.org/1999/xlink" width="600" height="426"  xml:space="preserve">
    <defs>
        <filter id="shadow-outer" filterUnits="userSpaceOnUse">
            <feGaussianBlur stdDeviation="2.5" />
            <feOffset dx="0.1" dy="3.1" result="blur" />
            <feFlood flood-color="rgb(0, 0, 0)" flood-opacity="0.5" />
            <feComposite in2="blur" operator="in" result="colorShadow" />
            <feComposite in="SourceGraphic" in2="colorShadow" operator="over" />
        </filter>
        <filter id="smallShadow-outer" filterUnits="userSpaceOnUse">
            <feGaussianBlur stdDeviation="2" />
            <feOffset dx="0.1" dy="2.1" result="blur" />
            <feFlood flood-color="rgb(0, 0, 0)" flood-opacity="0.5" />
            <feComposite in2="blur" operator="in" result="colorShadow" />
            <feComposite in="SourceGraphic" in2="colorShadow" operator="over" />
        </filter>
    </defs>
    <path id="bezier" stroke="none" fill="rgb(255, 255, 255)" filter="url(#shadow-outer)" d="M 41.07,29.6 L 258.67,29.6 C 267.5,29.6 274.67,36.76 274.67,45.6 L 274.67,167.2 C 274.67,176.04 267.5,183.2 258.67,183.2 L 41.07,183.2 C 32.23,183.2 25.07,176.04 25.07,167.2 L 25.07,45.6 C 25.07,36.76 32.23,29.6 41.07,29.6 Z M 41.07,29.6" />
    <path id="bezier2" stroke="rgb(68, 68, 68)" stroke-width="1.33" stroke-linecap="round" stroke-linejoin="round" stroke-miterlimit="4" fill="none" d="M 41.07,29.6 L 258.67,29.6 C 267.5,29.6 274.67,36.76 274.67,45.6 L 274.67,167.2 C 274.67,176.04 267.5,183.2 258.67,183.2 L 41.07,183.2 C 32.23,183.2 25.07,176.04 25.07,167.2 L 25.07,45.6 C 25.07,36.76 32.23,29.6 41.07,29.6 Z M 41.07,29.6" />
    <path id="bezier3" stroke="none" fill="rgb(255, 255, 255)" d="M 25.07,48.8 L 101.87,48.8 101.87,87.2 25.07,87.2 25.07,48.8 Z M 25.07,48.8" />
    <path id="bezier4" stroke="none" fill="rgb(255, 255, 255)" d="M 101.87,48.8 L 265.07,48.8 265.07,87.2 101.87,87.2 101.87,48.8 Z M 101.87,48.8" />
    <path id="bezier5" stroke="none" fill="rgb(255, 255, 255)" d="M 25.07,87.2 L 101.87,87.2 101.87,125.6 25.07,125.6 25.07,87.2 Z M 25.07,87.2" />
    <path id="bezier6" stroke="none" fill="rgb(255, 255, 255)" d="M 101.87,87.2 L 265.07,87.2 265.07,125.6 101.87,125.6 101.87,87.2 Z M 101.87,87.2" />
    <path id="bezier7" stroke="rgb(68, 68, 68)" stroke-width="1.33" stroke-linecap="round" stroke-linejoin="round" stroke-miterlimit="4" fill="none" d="M 25.07,87.2 L 274.67,87.2 274.67,125.6 25.07,125.6 25.07,87.2 Z M 25.07,87.2" />
    <path id="bezier8" stroke="rgb(68, 68, 68)" stroke-width="1.33" stroke-linecap="round" stroke-linejoin="round" stroke-miterlimit="4" fill="none" d="M 25.07,48.8 L 274.67,48.8 274.67,87.2 25.07,87.2 25.07,48.8 Z M 25.07,48.8" />
    <path id="bezier9" stroke="none" fill="rgb(255, 255, 255)" d="M 25.07,125.6 L 101.87,125.6 101.87,164 25.07,164 25.07,125.6 Z M 25.07,125.6" />
    <path id="bezier10" stroke="none" fill="rgb(255, 255, 255)" d="M 101.87,125.6 L 265.07,125.6 265.07,164 101.87,164 101.87,125.6 Z M 101.87,125.6" />
    <g id="group3">
        <rect id="rectangle12" stroke="none" fill="rgb(255, 255, 255)" filter="url(#smallShadow-outer)" x="111.47" y="132.8" width="144" height="24" />
    </g>
    <path id="bezier11" stroke="none" fill="rgb(255, 255, 255)" d="M 111.47,132.8 L 188.27,132.8 188.27,156.8 111.47,156.8 111.47,132.8 Z M 111.47,132.8" />
    <path id="bezier12" stroke="rgb(68, 68, 68)" stroke-width="1.33" stroke-linecap="round" stroke-linejoin="round" stroke-miterlimit="4" fill="none" d="M 111.47,132.8 L 188.27,132.8 188.27,156.8 111.47,156.8 111.47,132.8 Z M 111.47,132.8" />
    <rect id="rectangle14" stroke="none" fill="rgb(255, 255, 255)" x="188.27" y="132.8" width="67.2" height="24" />
    <rect id="rectangle15" stroke="rgb(68, 68, 68)" stroke-width="1.33" fill="none" x="188.27" y="132.8" width="67.2" height="24" />
    <path id="bezier13" stroke="rgb(68, 68, 68)" stroke-width="1.33" stroke-linecap="round" stroke-linejoin="round" stroke-miterlimit="4" fill="none" d="M 25.07,125.6 L 274.67,125.6 274.67,164 25.07,164 25.07,125.6 Z M 25.07,125.6" />
    <path id="bezier14" stroke="none" fill="rgb(255, 255, 255)" filter="url(#shadow-outer)" d="M 329.07,29.6 L 546.67,29.6 C 555.5,29.6 562.67,36.76 562.67,45.6 L 562.67,167.2 C 562.67,176.04 555.5,183.2 546.67,183.2 L 329.07,183.2 C 320.23,183.2 313.07,176.04 313.07,167.2 L 313.07,45.6 C 313.07,36.76 320.23,29.6 329.07,29.6 Z M 329.07,29.6" />
    <path id="bezier15" stroke="rgb(68, 68, 68)" stroke-width="1.33" stroke-linecap="round" stroke-linejoin="round" stroke-miterlimit="4" fill="none" d="M 329.07,29.6 L 546.67,29.6 C 555.5,29.6 562.67,36.76 562.67,45.6 L 562.67,167.2 C 562.67,176.04 555.5,183.2 546.67,183.2 L 329.07,183.2 C 320.23,183.2 313.07,176.04 313.07,167.2 L 313.07,45.6 C 313.07,36.76 320.23,29.6 329.07,29.6 Z M 329.07,29.6" />
    <g id="group5">
        <path id="bezier16" stroke="rgb(193, 193, 193)" stroke-width="1.33" stroke-linecap="round" stroke-linejoin="round" stroke-miterlimit="4" fill="none" d="M 313.07,58.4 L 322.67,48.8" />
        <path id="bezier17" stroke="rgb(193, 193, 193)" stroke-width="1.33" stroke-linecap="round" stroke-linejoin="round" stroke-miterlimit="4" fill="none" d="M 313.07,68 L 332.27,48.8" />
        <path id="bezier18" stroke="rgb(193, 193, 193)" stroke-width="1.33" stroke-linecap="round" stroke-linejoin="round" stroke-miterlimit="4" fill="none" d="M 313.07,77.6 L 341.87,48.8" />
        <path id="bezier19" stroke="rgb(193, 193, 193)" stroke-width="1.33" stroke-linecap="round" stroke-linejoin="round" stroke-miterlimit="4" fill="none" d="M 313.07,87.2 L 351.47,48.8" />
        <path id="bezier20" stroke="rgb(193, 193, 193)" stroke-width="1.33" stroke-linecap="round" stroke-linejoin="round" stroke-miterlimit="4" fill="none" d="M 533.87,87.2 L 562.67,58.4" />
        <path id="bezier21" stroke="rgb(193, 193, 193)" stroke-width="1.33" stroke-linecap="round" stroke-linejoin="round" stroke-miterlimit="4" fill="none" d="M 543.47,87.2 L 562.67,68" />
        <path id="bezier22" stroke="rgb(193, 193, 193)" stroke-width="1.33" stroke-linecap="round" stroke-linejoin="round" stroke-miterlimit="4" fill="none" d="M 553.07,87.2 L 562.67,77.6" />
        <path id="bezier23" stroke="rgb(193, 193, 193)" stroke-width="1.33" stroke-linecap="round" stroke-linejoin="round" stroke-miterlimit="4" fill="none" d="M 322.67,87.2 L 361.07,48.8" />
        <path id="bezier24" stroke="rgb(193, 193, 193)" stroke-width="1.33" stroke-linecap="round" stroke-linejoin="round" stroke-miterlimit="4" fill="none" d="M 332.27,87.2 L 370.67,48.8" />
        <path id="bezier25" stroke="rgb(193, 193, 193)" stroke-width="1.33" stroke-linecap="round" stroke-linejoin="round" stroke-miterlimit="4" fill="none" d="M 341.87,87.2 L 380.27,48.8" />
        <path id="bezier26" stroke="rgb(193, 193, 193)" stroke-width="1.33" stroke-linecap="round" stroke-linejoin="round" stroke-miterlimit="4" fill="none" d="M 351.47,87.2 L 389.87,48.8" />
        <path id="bezier27" stroke="rgb(193, 193, 193)" stroke-width="1.33" stroke-linecap="round" stroke-linejoin="round" stroke-miterlimit="4" fill="none" d="M 361.07,87.2 L 399.47,48.8" />
        <path id="bezier28" stroke="rgb(193, 193, 193)" stroke-width="1.33" stroke-linecap="round" stroke-linejoin="round" stroke-miterlimit="4" fill="none" d="M 370.67,87.2 L 409.07,48.8" />
        <path id="bezier29" stroke="rgb(193, 193, 193)" stroke-width="1.33" stroke-linecap="round" stroke-linejoin="round" stroke-miterlimit="4" fill="none" d="M 380.27,87.2 L 418.67,48.8" />
        <path id="bezier30" stroke="rgb(193, 193, 193)" stroke-width="1.33" stroke-linecap="round" stroke-linejoin="round" stroke-miterlimit="4" fill="none" d="M 389.87,87.2 L 428.27,48.8" />
        <path id="bezier31" stroke="rgb(193, 193, 193)" stroke-width="1.33" stroke-linecap="round" stroke-linejoin="round" stroke-miterlimit="4" fill="none" d="M 399.47,87.2 L 437.87,48.8" />
        <path id="bezier32" stroke="rgb(193, 193, 193)" stroke-width="1.33" stroke-linecap="round" stroke-linejoin="round" stroke-miterlimit="4" fill="none" d="M 409.07,87.2 L 447.47,48.8" />
        <path id="bezier33" stroke="rgb(193, 193, 193)" stroke-width="1.33" stroke-linecap="round" stroke-linejoin="round" stroke-miterlimit="4" fill="none" d="M 418.67,87.2 L 457.07,48.8" />
        <path id="bezier34" stroke="rgb(193, 193, 193)" stroke-width="1.33" stroke-linecap="round" stroke-linejoin="round" stroke-miterlimit="4" fill="none" d="M 428.27,87.2 L 466.67,48.8" />
        <path id="bezier35" stroke="rgb(193, 193, 193)" stroke-width="1.33" stroke-linecap="round" stroke-linejoin="round" stroke-miterlimit="4" fill="none" d="M 437.87,87.2 L 476.27,48.8" />
        <path id="bezier36" stroke="rgb(193, 193, 193)" stroke-width="1.33" stroke-linecap="round" stroke-linejoin="round" stroke-miterlimit="4" fill="none" d="M 447.47,87.2 L 485.87,48.8" />
        <path id="bezier37" stroke="rgb(193, 193, 193)" stroke-width="1.33" stroke-linecap="round" stroke-linejoin="round" stroke-miterlimit="4" fill="none" d="M 457.07,87.2 L 495.47,48.8" />
        <path id="bezier38" stroke="rgb(193, 193, 193)" stroke-width="1.33" stroke-linecap="round" stroke-linejoin="round" stroke-miterlimit="4" fill="none" d="M 466.67,87.2 L 505.07,48.8" />
        <path id="bezier39" stroke="rgb(193, 193, 193)" stroke-width="1.33" stroke-linecap="round" stroke-linejoin="round" stroke-miterlimit="4" fill="none" d="M 476.27,87.2 L 514.67,48.8" />
        <path id="bezier40" stroke="rgb(193, 193, 193)" stroke-width="1.33" stroke-linecap="round" stroke-linejoin="round" stroke-miterlimit="4" fill="none" d="M 485.87,87.2 L 524.27,48.8" />
        <path id="bezier41" stroke="rgb(193, 193, 193)" stroke-width="1.33" stroke-linecap="round" stroke-linejoin="round" stroke-miterlimit="4" fill="none" d="M 495.47,87.2 L 533.87,48.8" />
        <path id="bezier42" stroke="rgb(193, 193, 193)" stroke-width="1.33" stroke-linecap="round" stroke-linejoin="round" stroke-miterlimit="4" fill="none" d="M 505.07,87.2 L 543.47,48.8" />
        <path id="bezier43" stroke="rgb(193, 193, 193)" stroke-width="1.33" stroke-linecap="round" stroke-linejoin="round" stroke-miterlimit="4" fill="none" d="M 514.67,87.2 L 553.07,48.8" />
        <path id="bezier44" stroke="rgb(193, 193, 193)" stroke-width="1.33" stroke-linecap="round" stroke-linejoin="round" stroke-miterlimit="4" fill="none" d="M 524.27,87.2 L 562.67,48.8" />
    </g>
    <path id="bezier45" stroke="rgb(68, 68, 68)" stroke-width="1.33" stroke-linecap="round" stroke-linejoin="round" stroke-miterlimit="4" fill="none" d="M 313.07,48.8 L 562.67,48.8 562.67,87.2 313.07,87.2 313.07,48.8 Z M 313.07,48.8" />
    <g id="group">
        <path id="bezier46" stroke="rgb(193, 193, 193)" stroke-width="1.33" stroke-linecap="round" stroke-linejoin="round" stroke-miterlimit="4" fill="none" d="M 313.07,96.8 L 322.67,87.2" />
        <path id="bezier47" stroke="rgb(193, 193, 193)" stroke-width="1.33" stroke-linecap="round" stroke-linejoin="round" stroke-miterlimit="4" fill="none" d="M 313.07,106.4 L 332.27,87.2" />
        <path id="bezier48" stroke="rgb(193, 193, 193)" stroke-width="1.33" stroke-linecap="round" stroke-linejoin="round" stroke-miterlimit="4" fill="none" d="M 313.07,116 L 341.87,87.2" />
        <path id="bezier49" stroke="rgb(193, 193, 193)" stroke-width="1.33" stroke-linecap="round" stroke-linejoin="round" stroke-miterlimit="4" fill="none" d="M 313.07,125.6 L 351.47,87.2" />
        <path id="bezier50" stroke="rgb(193, 193, 193)" stroke-width="1.33" stroke-linecap="round" stroke-linejoin="round" stroke-miterlimit="4" fill="none" d="M 533.87,125.6 L 562.67,96.8" />
        <path id="bezier51" stroke="rgb(193, 193, 193)" stroke-width="1.33" stroke-linecap="round" stroke-linejoin="round" stroke-miterlimit="4" fill="none" d="M 543.47,125.6 L 562.67,106.4" />
        <path id="bezier52" stroke="rgb(193, 193, 193)" stroke-width="1.33" stroke-linecap="round" stroke-linejoin="round" stroke-miterlimit="4" fill="none" d="M 553.07,125.6 L 562.67,116" />
        <path id="bezier53" stroke="rgb(193, 193, 193)" stroke-width="1.33" stroke-linecap="round" stroke-linejoin="round" stroke-miterlimit="4" fill="none" d="M 322.67,125.6 L 361.07,87.2" />
        <path id="bezier54" stroke="rgb(193, 193, 193)" stroke-width="1.33" stroke-linecap="round" stroke-linejoin="round" stroke-miterlimit="4" fill="none" d="M 332.27,125.6 L 370.67,87.2" />
        <path id="bezier55" stroke="rgb(193, 193, 193)" stroke-width="1.33" stroke-linecap="round" stroke-linejoin="round" stroke-miterlimit="4" fill="none" d="M 341.87,125.6 L 380.27,87.2" />
        <path id="bezier56" stroke="rgb(193, 193, 193)" stroke-width="1.33" stroke-linecap="round" stroke-linejoin="round" stroke-miterlimit="4" fill="none" d="M 351.47,125.6 L 389.87,87.2" />
        <path id="bezier57" stroke="rgb(193, 193, 193)" stroke-width="1.33" stroke-linecap="round" stroke-linejoin="round" stroke-miterlimit="4" fill="none" d="M 361.07,125.6 L 399.47,87.2" />
        <path id="bezier58" stroke="rgb(193, 193, 193)" stroke-width="1.33" stroke-linecap="round" stroke-linejoin="round" stroke-miterlimit="4" fill="none" d="M 370.67,125.6 L 409.07,87.2" />
        <path id="bezier59" stroke="rgb(193, 193, 193)" stroke-width="1.33" stroke-linecap="round" stroke-linejoin="round" stroke-miterlimit="4" fill="none" d="M 380.27,125.6 L 418.67,87.2" />
        <path id="bezier60" stroke="rgb(193, 193, 193)" stroke-width="1.33" stroke-linecap="round" stroke-linejoin="round" stroke-miterlimit="4" fill="none" d="M 389.87,125.6 L 428.27,87.2" />
        <path id="bezier61" stroke="rgb(193, 193, 193)" stroke-width="1.33" stroke-linecap="round" stroke-linejoin="round" stroke-miterlimit="4" fill="none" d="M 399.47,125.6 L 437.87,87.2" />
        <path id="bezier62" stroke="rgb(193, 193, 193)" stroke-width="1.33" stroke-linecap="round" stroke-linejoin="round" stroke-miterlimit="4" fill="none" d="M 409.07,125.6 L 447.47,87.2" />
        <path id="bezier63" stroke="rgb(193, 193, 193)" stroke-width="1.33" stroke-linecap="round" stroke-linejoin="round" stroke-miterlimit="4" fill="none" d="M 418.67,125.6 L 457.07,87.2" />
        <path id="bezier64" stroke="rgb(193, 193, 193)" stroke-width="1.33" stroke-linecap="round" stroke-linejoin="round" stroke-miterlimit="4" fill="none" d="M 428.27,125.6 L 466.67,87.2" />
        <path id="bezier65" stroke="rgb(193, 193, 193)" stroke-width="1.33" stroke-linecap="round" stroke-linejoin="round" stroke-miterlimit="4" fill="none" d="M 437.87,125.6 L 476.27,87.2" />
        <path id="bezier66" stroke="rgb(193, 193, 193)" stroke-width="1.33" stroke-linecap="round" stroke-linejoin="round" stroke-miterlimit="4" fill="none" d="M 447.47,125.6 L 485.87,87.2" />
        <path id="bezier67" stroke="rgb(193, 193, 193)" stroke-width="1.33" stroke-linecap="round" stroke-linejoin="round" stroke-miterlimit="4" fill="none" d="M 457.07,125.6 L 495.47,87.2" />
        <path id="bezier68" stroke="rgb(193, 193, 193)" stroke-width="1.33" stroke-linecap="round" stroke-linejoin="round" stroke-miterlimit="4" fill="none" d="M 466.67,125.6 L 505.07,87.2" />
        <path id="bezier69" stroke="rgb(193, 193, 193)" stroke-width="1.33" stroke-linecap="round" stroke-linejoin="round" stroke-miterlimit="4" fill="none" d="M 476.27,125.6 L 514.67,87.2" />
        <path id="bezier70" stroke="rgb(193, 193, 193)" stroke-width="1.33" stroke-linecap="round" stroke-linejoin="round" stroke-miterlimit="4" fill="none" d="M 485.87,125.6 L 524.27,87.2" />
        <path id="bezier71" stroke="rgb(193, 193, 193)" stroke-width="1.33" stroke-linecap="round" stroke-linejoin="round" stroke-miterlimit="4" fill="none" d="M 495.47,125.6 L 533.87,87.2" />
        <path id="bezier72" stroke="rgb(193, 193, 193)" stroke-width="1.33" stroke-linecap="round" stroke-linejoin="round" stroke-miterlimit="4" fill="none" d="M 505.07,125.6 L 543.47,87.2" />
        <path id="bezier73" stroke="rgb(193, 193, 193)" stroke-width="1.33" stroke-linecap="round" stroke-linejoin="round" stroke-miterlimit="4" fill="none" d="M 514.67,125.6 L 553.07,87.2" />
        <path id="bezier74" stroke="rgb(193, 193, 193)" stroke-width="1.33" stroke-linecap="round" stroke-linejoin="round" stroke-miterlimit="4" fill="none" d="M 524.27,125.6 L 562.67,87.2" />
    </g>
    <path id="bezier75" stroke="rgb(68, 68, 68)" stroke-width="1.33" stroke-linecap="round" stroke-linejoin="round" stroke-miterlimit="4" fill="none" d="M 313.07,87.2 L 562.67,87.2 562.67,125.6 313.07,125.6 313.07,87.2 Z M 313.07,87.2" />
    <path id="bezier76" stroke="none" fill="rgb(255, 255, 255)" d="M 399.47,125.6 L 553.07,125.6 553.07,164 399.47,164 399.47,125.6 Z M 399.47,125.6" />
    <path id="bezier77" stroke="rgb(68, 68, 68)" stroke-width="1.33" stroke-linecap="round" stroke-linejoin="round" stroke-miterlimit="4" fill="none" d="M 313.07,125.6 L 562.67,125.6 562.67,164 313.07,164 313.07,125.6 Z M 313.07,125.6" />
    <path id="bezier78" stroke="none" fill="rgb(255, 255, 255)" filter="url(#shadow-outer)" d="M 329.07,221.6 L 546.67,221.6 C 555.5,221.6 562.67,228.76 562.67,237.6 L 562.67,397.6 C 562.67,406.44 555.5,413.6 546.67,413.6 L 329.07,413.6 C 320.23,413.6 313.07,406.44 313.07,397.6 L 313.07,237.6 C 313.07,228.76 320.23,221.6 329.07,221.6 Z M 329.07,221.6" />
    <path id="bezier79" stroke="rgb(68, 68, 68)" stroke-width="1.33" stroke-linecap="round" stroke-linejoin="round" stroke-miterlimit="4" fill="none" d="M 329.07,221.6 L 546.67,221.6 C 555.5,221.6 562.67,228.76 562.67,237.6 L 562.67,397.6 C 562.67,406.44 555.5,413.6 546.67,413.6 L 329.07,413.6 C 320.23,413.6 313.07,406.44 313.07,397.6 L 313.07,237.6 C 313.07,228.76 320.23,221.6 329.07,221.6 Z M 329.07,221.6" />
    <path id="bezier80" stroke="none" fill="rgb(255, 255, 255)" d="M 389.87,240.8 L 553.07,240.8 553.07,279.2 389.87,279.2 389.87,240.8 Z M 389.87,240.8" />
    <path id="bezier81" stroke="none" fill="rgb(255, 255, 255)" d="M 389.87,279.2 L 553.07,279.2 553.07,317.6 389.87,317.6 389.87,279.2 Z M 389.87,279.2" />
    <path id="bezier82" stroke="none" fill="rgb(255, 255, 255)" d="M 389.87,356 L 553.07,356 553.07,394.4 389.87,394.4 389.87,356 Z M 389.87,356" />
    <path id="bezier83" stroke="none" fill="rgb(255, 255, 255)" d="M 389.87,356 L 553.07,356 553.07,394.4 389.87,394.4 389.87,356 Z M 389.87,356" />
    <path id="bezier84" stroke="rgb(68, 68, 68)" stroke-width="1.33" stroke-linecap="round" stroke-linejoin="round" stroke-miterlimit="4" fill="none" d="M 313.07,279.2 L 562.67,279.2 562.67,317.6 313.07,317.6 313.07,279.2 Z M 313.07,279.2" />
    <path id="bezier85" stroke="rgb(68, 68, 68)" stroke-width="1.33" stroke-linecap="round" stroke-linejoin="round" stroke-miterlimit="4" fill="none" d="M 313.07,356 L 562.67,356 562.67,394.4 313.07,394.4 313.07,356 Z M 313.07,356" />
    <path id="bezier86" stroke="rgb(68, 68, 68)" stroke-width="1.33" stroke-linecap="round" stroke-linejoin="round" stroke-miterlimit="4" fill="none" d="M 313.07,240.8 L 562.67,240.8 562.67,279.2 313.07,279.2 313.07,240.8 Z M 313.07,240.8" />
    <path id="bezier87" stroke="none" fill="rgb(255, 255, 255)" d="M 313.07,317.6 L 389.87,317.6 389.87,356 313.07,356 313.07,317.6 Z M 313.07,317.6" />
    <g id="group4">
        <path id="bezier88" stroke="none" fill="rgb(255, 255, 255)" filter="url(#smallShadow-outer)" d="M 399.47,324.8 L 543.47,324.8 543.47,348.8 399.47,348.8 399.47,324.8 Z M 399.47,324.8" />
    </g>
    <path id="bezier89" stroke="none" fill="rgb(255, 255, 255)" d="M 399.47,324.8 L 476.27,324.8 476.27,348.8 399.47,348.8 399.47,324.8 Z M 399.47,324.8" />
    <path id="bezier90" stroke="rgb(68, 68, 68)" stroke-width="1.33" stroke-linecap="round" stroke-linejoin="round" stroke-miterlimit="4" fill="none" d="M 399.47,324.8 L 476.27,324.8 476.27,348.8 399.47,348.8 399.47,324.8 Z M 399.47,324.8" />
    <path id="bezier91" stroke="none" fill="rgb(255, 255, 255)" d="M 476.27,324.8 L 543.47,324.8 543.47,348.8 476.27,348.8 476.27,324.8 Z M 476.27,324.8" />
    <path id="bezier92" stroke="rgb(68, 68, 68)" stroke-width="1.33" stroke-linecap="round" stroke-linejoin="round" stroke-miterlimit="4" fill="none" d="M 476.27,324.8 L 543.47,324.8 543.47,348.8 476.27,348.8 476.27,324.8 Z M 476.27,324.8" />
    <path id="bezier93" stroke="rgb(68, 68, 68)" stroke-width="1.33" stroke-linecap="round" stroke-linejoin="round" stroke-miterlimit="4" fill="none" d="M 313.07,317.6 L 562.67,317.6 562.67,356 313.07,356 313.07,317.6 Z M 313.07,317.6" />
    <rect id="rectangle2" stroke="none" fill="none" x="32" y="7" width="36" height="24" />
    <text fill="rgb(68, 68, 68)" font-family="Varela, sans-serif" font-size="12" x="32" y="7">
        <tspan x="32" y="19">order</tspan>
    </text>
    <rect id="rectangle4" stroke="none" fill="none" x="50" y="59" width="45" height="26" />
    <text fill="rgb(68, 68, 68)" font-family="Varela, sans-serif" font-size="13.33" x="67.52" y="59">
        <tspan x="67.52" y="73">size:</tspan>
    </text>
    <rect id="rectangle6" stroke="none" fill="none" x="108.53" y="58.52" width="26.67" height="26.67" />
    <text fill="rgb(68, 68, 68)" font-family="Varela, sans-serif" font-size="13.33" x="108.53" y="58.52">
        <tspan x="108.53" y="72.52">10</tspan>
    </text>
    <rect id="rectangle7" stroke="none" fill="none" x="32" y="97" width="63" height="27" />
    <text fill="rgb(68, 68, 68)" font-family="Varela, sans-serif" font-size="13.33" x="59.63" y="97">
        <tspan x="59.63" y="111">crust:</tspan>
    </text>
    <rect id="rectangle9" stroke="none" fill="none" x="108.53" y="96.92" width="66.67" height="26.67" />
    <text fill="rgb(68, 68, 68)" font-family="Varela, sans-serif" font-size="13.33" x="108.53" y="96.92">
        <tspan x="108.53" y="110.92">“thin”</tspan>
    </text>
    <rect id="rectangle11" stroke="none" fill="none" x="25" y="135" width="70" height="27" />
    <text fill="rgb(68, 68, 68)" font-family="Varela, sans-serif" font-size="13.33" x="35.12" y="135">
        <tspan x="35.12" y="149">toppings:</tspan>
    </text>
    <rect id="rectangle13" stroke="none" fill="none" x="111" y="137" width="74" height="24" />
    <text fill="rgb(68, 68, 68)" font-family="Varela, sans-serif" font-size="12" x="113.59" y="137">
        <tspan x="113.59" y="149">“pepperoni”</tspan>
    </text>
    <rect id="rectangle16" stroke="none" fill="none" x="188" y="137" width="67" height="24" />
    <text fill="rgb(68, 68, 68)" font-family="Varela, sans-serif" font-size="12" x="193.17" y="137">
        <tspan x="193.17" y="149">“sausage”</tspan>
    </text>
    <rect id="rectangle17" stroke="none" fill="none" x="320" y="7" width="60" height="24" />
    <text fill="rgb(68, 68, 68)" font-family="Varela, sans-serif" font-size="12" x="320" y="7">
        <tspan x="320" y="19">standard</tspan>
    </text>
    <rect id="rectangle20" stroke="none" fill="none" x="340" y="59" width="43" height="26" />
    <text fill="rgb(68, 68, 68)" font-family="Varela, sans-serif" font-size="13.33" x="355.52" y="59">
        <tspan x="355.52" y="73">size:</tspan>
    </text>
    <rect id="rectangle22" stroke="none" fill="none" x="406.13" y="58.52" width="26.67" height="26.67" />
    <text fill="rgb(68, 68, 68)" font-family="Varela, sans-serif" font-size="13.33" x="406.13" y="58.52">
        <tspan x="406.13" y="72.52">12</tspan>
    </text>
    <rect id="rectangle23" stroke="none" fill="none" x="335" y="97" width="48" height="27" />
    <text fill="rgb(68, 68, 68)" font-family="Varela, sans-serif" font-size="13.33" x="347.63" y="97">
        <tspan x="347.63" y="111">crust:</tspan>
    </text>
    <rect id="rectangle25" stroke="none" fill="none" x="406" y="97" width="70" height="27" />
    <text fill="rgb(68, 68, 68)" font-family="Varela, sans-serif" font-size="13.33" x="406" y="97">
        <tspan x="406" y="111">“regular”</tspan>
    </text>
    <rect id="rectangle27" stroke="none" fill="none" x="406.13" y="135.32" width="53.33" height="26.67" />
    <text fill="rgb(68, 68, 68)" font-family="Varela, sans-serif" font-size="13.33" x="406.13" y="135.32">
        <tspan x="406.13" y="149.32">true</tspan>
    </text>
    <rect id="rectangle28" stroke="none" fill="none" x="185" y="285" width="72" height="24" />
    <text fill="rgb(68, 68, 68)" font-family="Varela, sans-serif" font-size="12" x="185" y="285">
        <tspan x="185" y="297">_.defaults(</tspan>
    </text>
    <rect id="rectangle31" stroke="none" fill="none" x="197.33" y="301.47" width="72" height="24" />
    <text fill="rgb(68, 68, 68)" font-family="Varela, sans-serif" font-size="12" x="197.33" y="301.47">
        <tspan x="197.33" y="313.47">order,</tspan>
    </text>
    <rect id="rectangle34" stroke="none" fill="none" x="197" y="317" width="72" height="24" />
    <text fill="rgb(68, 68, 68)" font-family="Varela, sans-serif" font-size="12" x="197" y="317">
        <tspan x="197" y="329">standard</tspan>
    </text>
    <rect id="rectangle37" stroke="none" fill="none" x="185.33" y="333.47" width="12" height="24" />
    <text fill="rgb(68, 68, 68)" font-family="Varela, sans-serif" font-size="12" x="185.33" y="333.47">
        <tspan x="185.33" y="345.47">)</tspan>
    </text>
    <rect id="rectangle38" stroke="none" fill="none" x="396.53" y="250.52" width="26.67" height="26.67" />
    <text fill="rgb(68, 68, 68)" font-family="Varela, sans-serif" font-size="13.33" x="396.53" y="250.52">
        <tspan x="396.53" y="264.52">10</tspan>
    </text>
    <rect id="rectangle39" stroke="none" fill="none" x="396.53" y="288.92" width="66.67" height="26.67" />
    <text fill="rgb(68, 68, 68)" font-family="Varela, sans-serif" font-size="13.33" x="396.53" y="288.92">
        <tspan x="396.53" y="302.92">“thin”</tspan>
    </text>
    <rect id="rectangle42" stroke="none" fill="none" x="320" y="327" width="63" height="27" />
    <text fill="rgb(68, 68, 68)" font-family="Varela, sans-serif" font-size="13.33" x="323.12" y="327">
        <tspan x="323.12" y="341">toppings:</tspan>
    </text>
    <rect id="rectangle43" stroke="none" fill="none" x="399" y="329" width="77" height="24" />
    <text fill="rgb(68, 68, 68)" font-family="Varela, sans-serif" font-size="12" x="403.09" y="329">
        <tspan x="403.09" y="341">“pepperoni”</tspan>
    </text>
    <rect id="rectangle44" stroke="none" fill="none" x="476" y="329" width="68" height="24" />
    <text fill="rgb(68, 68, 68)" font-family="Varela, sans-serif" font-size="12" x="481.67" y="329">
        <tspan x="481.67" y="341">“sausage”</tspan>
    </text>
    <rect id="rectangle41" stroke="none" fill="none" x="396.53" y="365.72" width="53.33" height="26.67" />
    <text fill="rgb(68, 68, 68)" font-family="Varela, sans-serif" font-size="13.33" x="396.53" y="365.72">
        <tspan x="396.53" y="379.72">true</tspan>
    </text>
    <rect id="rectangle" stroke="none" fill="none" x="335" y="288" width="48" height="27" />
    <text fill="rgb(68, 68, 68)" font-family="Varela, sans-serif" font-size="13.33" x="347.63" y="288">
        <tspan x="347.63" y="302">crust:</tspan>
    </text>
    <rect id="rectangle3" stroke="none" fill="none" x="335" y="250" width="48" height="27" />
    <text fill="rgb(68, 68, 68)" font-family="Varela, sans-serif" font-size="13.33" x="355.52" y="250">
        <tspan x="355.52" y="264">size:</tspan>
    </text>
    <rect id="rectangle5" stroke="none" fill="none" x="328" y="366" width="55" height="27" />
    <text fill="rgb(68, 68, 68)" font-family="Varela, sans-serif" font-size="13.33" x="335.07" y="366">
        <tspan x="335.07" y="380">cheese:</tspan>
    </text>
    <rect id="rectangle8" stroke="none" fill="none" x="328" y="135" width="55" height="27" />
    <text fill="rgb(68, 68, 68)" font-family="Varela, sans-serif" font-size="13.33" x="335.07" y="135">
        <tspan x="335.07" y="149">cheese:</tspan>
    </text>
</svg>
