<?xml version="1.0" encoding="UTF-8"?>
<!DOCTYPE svg PUBLIC "-//W3C//DTD SVG 1.1//EN" "http://www.w3.org/Graphics/SVG/1.1/DTD/svg11.dtd">
<svg version="1.1" xmlns="http://www.w3.org/2000/svg" xmlns:xlink="http://www.w3.org/1999/xlink" width="600" height="66"  xml:space="preserve">
    <defs>
        <filter id="shadow-outer" filterUnits="userSpaceOnUse">
            <feGaussianBlur stdDeviation="2.5" />
            <feOffset dx="0.1" dy="3.1" result="blur" />
            <feFlood flood-color="rgb(0, 0, 0)" flood-opacity="0.5" />
            <feComposite in2="blur" operator="in" result="colorShadow" />
            <feComposite in="SourceGraphic" in2="colorShadow" operator="over" />
        </filter>
    </defs>
    <path id="bezier2" stroke="none" fill="rgb(255, 255, 255)" filter="url(#shadow-outer)" d="M 151,6.67 L 199,6.67 199,54.67 151,54.67 151,6.67 Z M 151,6.67" />
    <path id="bezier3" stroke="rgb(68, 68, 68)" stroke-width="1.33" stroke-linecap="round" stroke-linejoin="round" stroke-miterlimit="4" fill="none" d="M 151,6.67 L 199,6.67 199,54.67 151,54.67 151,6.67 Z M 151,6.67" />
    <rect id="rectangle2" stroke="none" fill="rgb(255, 255, 255)" filter="url(#shadow-outer)" x="199" y="6.67" width="48" height="48" />
    <rect id="rectangle3" stroke="rgb(68, 68, 68)" stroke-width="1.33" fill="none" x="199" y="6.67" width="48" height="48" />
    <path id="bezier4" stroke="none" fill="rgb(255, 255, 255)" filter="url(#shadow-outer)" d="M 247,6.67 L 295,6.67 295,54.67 247,54.67 247,6.67 Z M 247,6.67" />
    <path id="bezier5" stroke="rgb(68, 68, 68)" stroke-width="1.33" stroke-linecap="round" stroke-linejoin="round" stroke-miterlimit="4" fill="none" d="M 247,6.67 L 295,6.67 295,54.67 247,54.67 247,6.67 Z M 247,6.67" />
    <rect id="rectangle6" stroke="none" fill="rgb(255, 255, 255)" filter="url(#shadow-outer)" x="295" y="6.67" width="48" height="48" />
    <rect id="rectangle7" stroke="rgb(68, 68, 68)" stroke-width="1.33" fill="none" x="295" y="6.67" width="48" height="48" />
    <path id="bezier6" stroke="none" fill="rgb(255, 255, 255)" filter="url(#shadow-outer)" d="M 343,6.67 L 391,6.67 391,54.67 343,54.67 343,6.67 Z M 343,6.67" />
    <path id="bezier7" stroke="rgb(68, 68, 68)" stroke-width="1.33" stroke-linecap="round" stroke-linejoin="round" stroke-miterlimit="4" fill="none" d="M 343,6.67 L 391,6.67 391,54.67 343,54.67 343,6.67 Z M 343,6.67" />
    <rect id="rectangle10" stroke="none" fill="rgb(255, 255, 255)" filter="url(#shadow-outer)" x="391" y="6.67" width="48" height="48" />
    <rect id="rectangle11" stroke="rgb(68, 68, 68)" stroke-width="1.33" fill="none" x="391" y="6.67" width="48" height="48" />
    <path id="bezier8" stroke="none" fill="rgb(255, 255, 255)" filter="url(#shadow-outer)" d="M 439,6.67 L 487,6.67 487,54.67 439,54.67 439,6.67 Z M 439,6.67" />
    <path id="bezier9" stroke="rgb(68, 68, 68)" stroke-width="1.33" stroke-linecap="round" stroke-linejoin="round" stroke-miterlimit="4" fill="none" d="M 439,6.67 L 487,6.67 487,54.67 439,54.67 439,6.67 Z M 439,6.67" />
    <rect id="rectangle14" stroke="none" fill="rgb(255, 255, 255)" filter="url(#shadow-outer)" x="487" y="6.67" width="48" height="48" />
    <rect id="rectangle15" stroke="rgb(68, 68, 68)" stroke-width="1.33" fill="none" x="487" y="6.67" width="48" height="48" />
    <path id="bezier10" stroke="none" fill="rgb(255, 255, 255)" filter="url(#shadow-outer)" d="M 535,6.67 L 583,6.67 583,54.67 535,54.67 535,6.67 Z M 535,6.67" />
    <path id="bezier11" stroke="rgb(68, 68, 68)" stroke-width="1.33" stroke-linecap="round" stroke-linejoin="round" stroke-miterlimit="4" fill="none" d="M 535,6.67 L 583,6.67 583,54.67 535,54.67 535,6.67 Z M 535,6.67" />
    <rect id="rectangle" stroke="none" fill="none" x="151" y="20" width="47" height="32" />
    <text fill="rgb(68, 68, 68)" font-family="Varela, sans-serif" font-size="16" x="169.48" y="20">
        <tspan x="169.48" y="36">1</tspan>
    </text>
    <rect id="rectangle4" stroke="none" fill="none" x="199" y="20" width="47" height="32" />
    <text fill="rgb(68, 68, 68)" font-family="Varela, sans-serif" font-size="16" x="217.48" y="20">
        <tspan x="217.48" y="36">2</tspan>
    </text>
    <rect id="rectangle5" stroke="none" fill="none" x="247" y="20" width="47" height="32" />
    <text fill="rgb(68, 68, 68)" font-family="Varela, sans-serif" font-size="16" x="265.48" y="20">
        <tspan x="265.48" y="36">3</tspan>
    </text>
    <rect id="rectangle8" stroke="none" fill="none" x="295" y="20" width="47" height="32" />
    <text fill="rgb(68, 68, 68)" font-family="Varela, sans-serif" font-size="16" x="313.48" y="20">
        <tspan x="313.48" y="36">4</tspan>
    </text>
    <rect id="rectangle9" stroke="none" fill="none" x="343" y="20" width="47" height="32" />
    <text fill="rgb(68, 68, 68)" font-family="Varela, sans-serif" font-size="16" x="361.48" y="20">
        <tspan x="361.48" y="36">5</tspan>
    </text>
    <rect id="rectangle12" stroke="none" fill="none" x="391" y="20" width="47" height="32" />
    <text fill="rgb(68, 68, 68)" font-family="Varela, sans-serif" font-size="16" x="409.48" y="20">
        <tspan x="409.48" y="36">6</tspan>
    </text>
    <rect id="rectangle13" stroke="none" fill="none" x="439" y="20" width="46" height="32" />
    <text fill="rgb(68, 68, 68)" font-family="Varela, sans-serif" font-size="16" x="456.98" y="20">
        <tspan x="456.98" y="36">7</tspan>
    </text>
    <rect id="rectangle16" stroke="none" fill="none" x="486" y="20" width="49" height="32" />
    <text fill="rgb(68, 68, 68)" font-family="Varela, sans-serif" font-size="16" x="505.48" y="20">
        <tspan x="505.48" y="36">8</tspan>
    </text>
    <rect id="rectangle17" stroke="none" fill="none" x="535" y="20" width="47" height="32" />
    <text fill="rgb(68, 68, 68)" font-family="Varela, sans-serif" font-size="16" x="553.48" y="20">
        <tspan x="553.48" y="36">9</tspan>
    </text>
    <rect id="rectangle18" stroke="none" fill="none" x="0" y="21" width="116" height="29" />
    <text fill="rgb(68, 68, 68)" font-family="Varela, sans-serif" font-size="14.67" x="96.51" y="21">
        <tspan x="96.51" y="36">arr</tspan>
    </text>
</svg>
