<?xml version="1.0" encoding="UTF-8"?>
<!DOCTYPE svg PUBLIC "-//W3C//DTD SVG 1.1//EN" "http://www.w3.org/Graphics/SVG/1.1/DTD/svg11.dtd">
<svg version="1.1" xmlns="http://www.w3.org/2000/svg" xmlns:xlink="http://www.w3.org/1999/xlink" width="640" height="132"  xml:space="preserve">
    <defs>
        <filter id="shadow-outer" filterUnits="userSpaceOnUse">
            <feGaussianBlur stdDeviation="2.5" />
            <feOffset dx="0.1" dy="3.1" result="blur" />
            <feFlood flood-color="rgb(0, 0, 0)" flood-opacity="0.5" />
            <feComposite in2="blur" operator="in" result="colorShadow" />
            <feComposite in="SourceGraphic" in2="colorShadow" operator="over" />
        </filter>
    </defs>
    <rect id="rectangle2" stroke="none" fill="rgb(193, 193, 193)" filter="url(#shadow-outer)" x="24.8" y="6.13" width="48" height="48" />
    <rect id="rectangle3" stroke="rgb(68, 68, 68)" stroke-width="1.33" fill="none" x="24.8" y="6.13" width="48" height="48" />
    <rect id="rectangle5" stroke="none" fill="rgb(193, 193, 193)" filter="url(#shadow-outer)" x="72.8" y="6.13" width="48" height="48" />
    <rect id="rectangle6" stroke="rgb(68, 68, 68)" stroke-width="1.33" fill="none" x="72.8" y="6.13" width="48" height="48" />
    <rect id="rectangle8" stroke="none" fill="rgb(255, 255, 255)" filter="url(#shadow-outer)" x="120.8" y="6.13" width="48" height="48" />
    <rect id="rectangle9" stroke="rgb(68, 68, 68)" stroke-width="1.33" fill="none" x="120.8" y="6.13" width="48" height="48" />
    <rect id="rectangle11" stroke="none" fill="rgb(193, 193, 193)" filter="url(#shadow-outer)" x="168.8" y="6.13" width="48" height="48" />
    <rect id="rectangle12" stroke="rgb(68, 68, 68)" stroke-width="1.33" fill="none" x="168.8" y="6.13" width="48" height="48" />
    <rect id="rectangle14" stroke="none" fill="rgb(193, 193, 193)" filter="url(#shadow-outer)" x="216.8" y="6.13" width="48" height="48" />
    <rect id="rectangle15" stroke="rgb(68, 68, 68)" stroke-width="1.33" fill="none" x="216.8" y="6.13" width="48" height="48" />
    <rect id="rectangle17" stroke="none" fill="rgb(193, 193, 193)" filter="url(#shadow-outer)" x="264.8" y="6.13" width="48" height="48" />
    <rect id="rectangle18" stroke="rgb(68, 68, 68)" stroke-width="1.33" fill="none" x="264.8" y="6.13" width="48" height="48" />
    <rect id="rectangle20" stroke="none" fill="rgb(193, 193, 193)" filter="url(#shadow-outer)" x="312.8" y="6.13" width="48" height="48" />
    <rect id="rectangle21" stroke="rgb(68, 68, 68)" stroke-width="1.33" fill="none" x="312.8" y="6.13" width="48" height="48" />
    <rect id="rectangle23" stroke="none" fill="rgb(255, 255, 255)" filter="url(#shadow-outer)" x="380" y="6.13" width="48" height="48" />
    <rect id="rectangle24" stroke="rgb(68, 68, 68)" stroke-width="1.33" fill="none" x="380" y="6.13" width="48" height="48" />
    <rect id="rectangle26" stroke="none" fill="rgb(255, 255, 255)" filter="url(#shadow-outer)" x="428" y="6.13" width="48" height="48" />
    <rect id="rectangle27" stroke="rgb(68, 68, 68)" stroke-width="1.33" fill="none" x="428" y="6.13" width="48" height="48" />
    <rect id="rectangle29" stroke="none" fill="rgb(193, 193, 193)" filter="url(#shadow-outer)" x="476" y="6.13" width="48" height="48" />
    <rect id="rectangle30" stroke="rgb(68, 68, 68)" stroke-width="1.33" fill="none" x="476" y="6.13" width="48" height="48" />
    <rect id="rectangle32" stroke="none" fill="rgb(193, 193, 193)" filter="url(#shadow-outer)" x="524" y="6.13" width="48" height="48" />
    <rect id="rectangle33" stroke="rgb(68, 68, 68)" stroke-width="1.33" fill="none" x="524" y="6.13" width="48" height="48" />
    <rect id="rectangle35" stroke="none" fill="rgb(255, 255, 255)" filter="url(#shadow-outer)" x="572" y="6.13" width="48" height="48" />
    <rect id="rectangle36" stroke="rgb(68, 68, 68)" stroke-width="1.33" fill="none" x="572" y="6.13" width="48" height="48" />
    <rect id="rectangle38" stroke="none" fill="rgb(193, 193, 193)" filter="url(#shadow-outer)" x="476" y="73.33" width="48" height="48" />
    <rect id="rectangle39" stroke="rgb(68, 68, 68)" stroke-width="1.33" fill="none" x="476" y="73.33" width="48" height="48" />
    <rect id="rectangle41" stroke="none" fill="rgb(193, 193, 193)" filter="url(#shadow-outer)" x="524" y="73.33" width="48" height="48" />
    <rect id="rectangle42" stroke="rgb(68, 68, 68)" stroke-width="1.33" fill="none" x="524" y="73.33" width="48" height="48" />
    <rect id="rectangle44" stroke="none" fill="rgb(193, 193, 193)" filter="url(#shadow-outer)" x="188" y="73.33" width="48" height="48" />
    <rect id="rectangle45" stroke="rgb(68, 68, 68)" stroke-width="1.33" fill="none" x="188" y="73.33" width="48" height="48" />
    <path id="bezier" stroke="none" fill="rgb(193, 193, 193)" filter="url(#shadow-outer)" d="M 236,73.33 L 284,73.33 284,121.33 236,121.33 236,73.33 Z M 236,73.33" />
    <path id="bezier2" stroke="rgb(68, 68, 68)" stroke-width="1.33" stroke-linecap="round" stroke-linejoin="round" stroke-miterlimit="4" fill="none" d="M 236,73.33 L 284,73.33 284,121.33 236,121.33 236,73.33 Z M 236,73.33" />
    <rect id="rectangle48" stroke="none" fill="rgb(193, 193, 193)" filter="url(#shadow-outer)" x="284" y="73.33" width="48" height="48" />
    <rect id="rectangle49" stroke="rgb(68, 68, 68)" stroke-width="1.33" fill="none" x="284" y="73.33" width="48" height="48" />
    <rect id="rectangle51" stroke="none" fill="rgb(193, 193, 193)" filter="url(#shadow-outer)" x="332" y="73.33" width="48" height="48" />
    <rect id="rectangle52" stroke="rgb(68, 68, 68)" stroke-width="1.33" fill="none" x="332" y="73.33" width="48" height="48" />
    <rect id="rectangle54" stroke="none" fill="rgb(193, 193, 193)" filter="url(#shadow-outer)" x="380" y="73.33" width="48" height="48" />
    <rect id="rectangle55" stroke="rgb(68, 68, 68)" stroke-width="1.33" fill="none" x="380" y="73.33" width="48" height="48" />
    <rect id="rectangle57" stroke="none" fill="rgb(193, 193, 193)" filter="url(#shadow-outer)" x="428" y="73.33" width="48" height="48" />
    <rect id="rectangle58" stroke="rgb(68, 68, 68)" stroke-width="1.33" fill="none" x="428" y="73.33" width="48" height="48" />
    <rect id="rectangle4" stroke="none" fill="none" x="24" y="20" width="48" height="32" />
    <text fill="rgb(68, 68, 68)" font-family="Varela, sans-serif" font-size="16" x="42.98" y="20">
        <tspan x="42.98" y="36">0</tspan>
    </text>
    <rect id="rectangle7" stroke="none" fill="none" x="72" y="20" width="48" height="32" />
    <text fill="rgb(68, 68, 68)" font-family="Varela, sans-serif" font-size="16" x="90.98" y="20">
        <tspan x="90.98" y="36">1</tspan>
    </text>
    <rect id="rectangle10" stroke="none" fill="none" x="120" y="20" width="48" height="32" />
    <text fill="rgb(68, 68, 68)" font-family="Varela, sans-serif" font-size="16" x="138.98" y="20">
        <tspan x="138.98" y="36">1</tspan>
    </text>
    <rect id="rectangle13" stroke="none" fill="none" x="168" y="20" width="48" height="32" />
    <text fill="rgb(68, 68, 68)" font-family="Varela, sans-serif" font-size="16" x="186.98" y="20">
        <tspan x="186.98" y="36">2</tspan>
    </text>
    <rect id="rectangle16" stroke="none" fill="none" x="215" y="20" width="49" height="32" />
    <text fill="rgb(68, 68, 68)" font-family="Varela, sans-serif" font-size="16" x="234.48" y="20">
        <tspan x="234.48" y="36">3</tspan>
    </text>
    <rect id="rectangle19" stroke="none" fill="none" x="263" y="20" width="49" height="32" />
    <text fill="rgb(68, 68, 68)" font-family="Varela, sans-serif" font-size="16" x="282.48" y="20">
        <tspan x="282.48" y="36">5</tspan>
    </text>
    <rect id="rectangle22" stroke="none" fill="none" x="312" y="20" width="48" height="32" />
    <text fill="rgb(68, 68, 68)" font-family="Varela, sans-serif" font-size="16" x="330.98" y="20">
        <tspan x="330.98" y="36">8</tspan>
    </text>
    <rect id="rectangle25" stroke="none" fill="none" x="379" y="20" width="48" height="32" />
    <text fill="rgb(68, 68, 68)" font-family="Varela, sans-serif" font-size="16" x="397.98" y="20">
        <tspan x="397.98" y="36">0</tspan>
    </text>
    <rect id="rectangle28" stroke="none" fill="none" x="428" y="20" width="47" height="32" />
    <text fill="rgb(68, 68, 68)" font-family="Varela, sans-serif" font-size="16" x="446.48" y="20">
        <tspan x="446.48" y="36">2</tspan>
    </text>
    <rect id="rectangle31" stroke="none" fill="none" x="475" y="20" width="48" height="32" />
    <text fill="rgb(68, 68, 68)" font-family="Varela, sans-serif" font-size="16" x="493.98" y="20">
        <tspan x="493.98" y="36">4</tspan>
    </text>
    <rect id="rectangle34" stroke="none" fill="none" x="523" y="20" width="48" height="32" />
    <text fill="rgb(68, 68, 68)" font-family="Varela, sans-serif" font-size="16" x="541.98" y="20">
        <tspan x="541.98" y="36">6</tspan>
    </text>
    <rect id="rectangle37" stroke="none" fill="none" x="571" y="20" width="49" height="32" />
    <text fill="rgb(68, 68, 68)" font-family="Varela, sans-serif" font-size="16" x="590.48" y="20">
        <tspan x="590.48" y="36">8</tspan>
    </text>
    <rect id="rectangle40" stroke="none" fill="none" x="476" y="87" width="47" height="32" />
    <text fill="rgb(68, 68, 68)" font-family="Varela, sans-serif" font-size="16" x="494.48" y="87">
        <tspan x="494.48" y="103">4</tspan>
    </text>
    <rect id="rectangle43" stroke="none" fill="none" x="523" y="87" width="48" height="32" />
    <text fill="rgb(68, 68, 68)" font-family="Varela, sans-serif" font-size="16" x="541.98" y="87">
        <tspan x="541.98" y="103">6</tspan>
    </text>
    <rect id="rectangle46" stroke="none" fill="none" x="187" y="87" width="48" height="32" />
    <text fill="rgb(68, 68, 68)" font-family="Varela, sans-serif" font-size="16" x="205.98" y="87">
        <tspan x="205.98" y="103">0</tspan>
    </text>
    <rect id="rectangle47" stroke="none" fill="none" x="235" y="87" width="48" height="32" />
    <text fill="rgb(68, 68, 68)" font-family="Varela, sans-serif" font-size="16" x="253.98" y="87">
        <tspan x="253.98" y="103">1</tspan>
    </text>
    <rect id="rectangle50" stroke="none" fill="none" x="283" y="87" width="48" height="32" />
    <text fill="rgb(68, 68, 68)" font-family="Varela, sans-serif" font-size="16" x="301.98" y="87">
        <tspan x="301.98" y="103">2</tspan>
    </text>
    <rect id="rectangle53" stroke="none" fill="none" x="330" y="87" width="49" height="32" />
    <text fill="rgb(68, 68, 68)" font-family="Varela, sans-serif" font-size="16" x="349.48" y="87">
        <tspan x="349.48" y="103">3</tspan>
    </text>
    <rect id="rectangle56" stroke="none" fill="none" x="379" y="87" width="48" height="32" />
    <text fill="rgb(68, 68, 68)" font-family="Varela, sans-serif" font-size="16" x="397.98" y="87">
        <tspan x="397.98" y="103">5</tspan>
    </text>
    <rect id="rectangle59" stroke="none" fill="none" x="427" y="87" width="48" height="32" />
    <text fill="rgb(68, 68, 68)" font-family="Varela, sans-serif" font-size="16" x="445.98" y="87">
        <tspan x="445.98" y="103">8</tspan>
    </text>
    <rect id="rectangle60" stroke="none" fill="none" x="25" y="88" width="148" height="29" />
    <text fill="rgb(68, 68, 68)" font-family="Varela, sans-serif" font-size="14.67" x="43.87" y="88">
        <tspan x="43.87" y="103">_(fibs).union(even)</tspan>
    </text>
</svg>
