<?xml version="1.0" encoding="UTF-8"?>
<!DOCTYPE svg PUBLIC "-//W3C//DTD SVG 1.1//EN" "http://www.w3.org/Graphics/SVG/1.1/DTD/svg11.dtd">
<svg version="1.1" xmlns="http://www.w3.org/2000/svg" xmlns:xlink="http://www.w3.org/1999/xlink" width="640" height="132"  xml:space="preserve">
    <defs>
        <filter id="shadow-outer" filterUnits="userSpaceOnUse">
            <feGaussianBlur stdDeviation="2.5" />
            <feOffset dx="0.1" dy="3.1" result="blur" />
            <feFlood flood-color="rgb(0, 0, 0)" flood-opacity="0.5" />
            <feComposite in2="blur" operator="in" result="colorShadow" />
            <feComposite in="SourceGraphic" in2="colorShadow" operator="over" />
        </filter>
    </defs>
    <rect id="rectangle2" stroke="none" fill="rgb(255, 255, 255)" filter="url(#shadow-outer)" x="24.8" y="5.6" width="48" height="48" />
    <rect id="rectangle3" stroke="rgb(68, 68, 68)" stroke-width="1.33" fill="none" x="24.8" y="5.6" width="48" height="48" />
    <rect id="rectangle5" stroke="none" fill="rgb(193, 193, 193)" filter="url(#shadow-outer)" x="72.8" y="5.6" width="48" height="48" />
    <rect id="rectangle6" stroke="rgb(68, 68, 68)" stroke-width="1.33" fill="none" x="72.8" y="5.6" width="48" height="48" />
    <rect id="rectangle8" stroke="none" fill="rgb(193, 193, 193)" filter="url(#shadow-outer)" x="120.8" y="5.6" width="48" height="48" />
    <rect id="rectangle9" stroke="rgb(68, 68, 68)" stroke-width="1.33" fill="none" x="120.8" y="5.6" width="48" height="48" />
    <rect id="rectangle11" stroke="none" fill="rgb(255, 255, 255)" filter="url(#shadow-outer)" x="168.8" y="5.6" width="48" height="48" />
    <rect id="rectangle12" stroke="rgb(68, 68, 68)" stroke-width="1.33" fill="none" x="168.8" y="5.6" width="48" height="48" />
    <rect id="rectangle14" stroke="none" fill="rgb(193, 193, 193)" filter="url(#shadow-outer)" x="216.8" y="5.6" width="48" height="48" />
    <rect id="rectangle15" stroke="rgb(68, 68, 68)" stroke-width="1.33" fill="none" x="216.8" y="5.6" width="48" height="48" />
    <rect id="rectangle17" stroke="none" fill="rgb(193, 193, 193)" filter="url(#shadow-outer)" x="264.8" y="5.6" width="48" height="48" />
    <rect id="rectangle18" stroke="rgb(68, 68, 68)" stroke-width="1.33" fill="none" x="264.8" y="5.6" width="48" height="48" />
    <rect id="rectangle20" stroke="none" fill="rgb(255, 255, 255)" filter="url(#shadow-outer)" x="312.8" y="5.6" width="48" height="48" />
    <rect id="rectangle21" stroke="rgb(68, 68, 68)" stroke-width="1.33" fill="none" x="312.8" y="5.6" width="48" height="48" />
    <path id="bezier" stroke="none" fill="rgb(193, 193, 193)" filter="url(#shadow-outer)" d="M 218,72.8 L 266,72.8 266,120.8 218,120.8 218,72.8 Z M 218,72.8" />
    <path id="bezier2" stroke="rgb(68, 68, 68)" stroke-width="1.33" stroke-linecap="round" stroke-linejoin="round" stroke-miterlimit="4" fill="none" d="M 218,72.8 L 266,72.8 266,120.8 218,120.8 218,72.8 Z M 218,72.8" />
    <path id="bezier3" stroke="none" fill="rgb(193, 193, 193)" filter="url(#shadow-outer)" d="M 266,72.8 L 314,72.8 314,120.8 266,120.8 266,72.8 Z M 266,72.8" />
    <path id="bezier4" stroke="rgb(68, 68, 68)" stroke-width="1.33" stroke-linecap="round" stroke-linejoin="round" stroke-miterlimit="4" fill="none" d="M 266,72.8 L 314,72.8 314,120.8 266,120.8 266,72.8 Z M 266,72.8" />
    <path id="bezier5" stroke="none" fill="rgb(193, 193, 193)" filter="url(#shadow-outer)" d="M 314,72.8 L 362,72.8 362,120.8 314,120.8 314,72.8 Z M 314,72.8" />
    <path id="bezier6" stroke="rgb(68, 68, 68)" stroke-width="1.33" stroke-linecap="round" stroke-linejoin="round" stroke-miterlimit="4" fill="none" d="M 314,72.8 L 362,72.8 362,120.8 314,120.8 314,72.8 Z M 314,72.8" />
    <path id="bezier7" stroke="none" fill="rgb(193, 193, 193)" filter="url(#shadow-outer)" d="M 362,72.8 L 410,72.8 410,120.8 362,120.8 362,72.8 Z M 362,72.8" />
    <path id="bezier8" stroke="rgb(68, 68, 68)" stroke-width="1.33" stroke-linecap="round" stroke-linejoin="round" stroke-miterlimit="4" fill="none" d="M 362,72.8 L 410,72.8 410,120.8 362,120.8 362,72.8 Z M 362,72.8" />
    <rect id="rectangle38" stroke="none" fill="rgb(255, 255, 255)" filter="url(#shadow-outer)" x="524" y="5.6" width="48" height="48" />
    <rect id="rectangle41" stroke="none" fill="rgb(255, 255, 255)" filter="url(#shadow-outer)" x="380" y="5.6" width="48" height="48" />
    <rect id="rectangle42" stroke="rgb(68, 68, 68)" stroke-width="1.33" fill="none" x="380" y="5.6" width="48" height="48" />
    <rect id="rectangle44" stroke="none" fill="rgb(255, 255, 255)" filter="url(#shadow-outer)" x="428" y="5.6" width="48" height="48" />
    <rect id="rectangle45" stroke="rgb(68, 68, 68)" stroke-width="1.33" fill="none" x="428" y="5.6" width="48" height="48" />
    <rect id="rectangle47" stroke="none" fill="rgb(255, 255, 255)" filter="url(#shadow-outer)" x="572" y="5.6" width="48" height="48" />
    <rect id="rectangle48" stroke="rgb(68, 68, 68)" stroke-width="1.33" fill="none" x="572" y="5.6" width="48" height="48" />
    <g id="group3">
        <path id="bezier9" stroke="rgb(193, 193, 193)" stroke-width="1.33" stroke-linecap="round" stroke-linejoin="round" stroke-miterlimit="4" fill="none" d="M 524,15.2 L 533.6,5.6" />
        <path id="bezier10" stroke="rgb(193, 193, 193)" stroke-width="1.33" stroke-linecap="round" stroke-linejoin="round" stroke-miterlimit="4" fill="none" d="M 524,24.8 L 543.2,5.6" />
        <path id="bezier11" stroke="rgb(193, 193, 193)" stroke-width="1.33" stroke-linecap="round" stroke-linejoin="round" stroke-miterlimit="4" fill="none" d="M 524,34.4 L 552.8,5.6" />
        <path id="bezier12" stroke="rgb(193, 193, 193)" stroke-width="1.33" stroke-linecap="round" stroke-linejoin="round" stroke-miterlimit="4" fill="none" d="M 524,44 L 562.4,5.6" />
        <path id="bezier13" stroke="rgb(193, 193, 193)" stroke-width="1.33" stroke-linecap="round" stroke-linejoin="round" stroke-miterlimit="4" fill="none" d="M 524,53.6 L 572,5.6" />
        <path id="bezier14" stroke="rgb(193, 193, 193)" stroke-width="1.33" stroke-linecap="round" stroke-linejoin="round" stroke-miterlimit="4" fill="none" d="M 533.6,53.6 L 572,15.2" />
        <path id="bezier15" stroke="rgb(193, 193, 193)" stroke-width="1.33" stroke-linecap="round" stroke-linejoin="round" stroke-miterlimit="4" fill="none" d="M 543.2,53.6 L 572,24.8" />
        <path id="bezier16" stroke="rgb(193, 193, 193)" stroke-width="1.33" stroke-linecap="round" stroke-linejoin="round" stroke-miterlimit="4" fill="none" d="M 552.8,53.6 L 572,34.4" />
        <path id="bezier17" stroke="rgb(193, 193, 193)" stroke-width="1.33" stroke-linecap="round" stroke-linejoin="round" stroke-miterlimit="4" fill="none" d="M 562.4,53.6 L 572,44" />
    </g>
    <rect id="rectangle39" stroke="rgb(68, 68, 68)" stroke-width="1.33" fill="none" x="524" y="5.6" width="48" height="48" />
    <rect id="rectangle50" stroke="none" fill="rgb(255, 255, 255)" filter="url(#shadow-outer)" x="476" y="5.6" width="48" height="48" />
    <g id="group">
        <path id="bezier18" stroke="rgb(193, 193, 193)" stroke-width="1.33" stroke-linecap="round" stroke-linejoin="round" stroke-miterlimit="4" fill="none" d="M 476,15.2 L 485.6,5.6" />
        <path id="bezier19" stroke="rgb(193, 193, 193)" stroke-width="1.33" stroke-linecap="round" stroke-linejoin="round" stroke-miterlimit="4" fill="none" d="M 476,24.8 L 495.2,5.6" />
        <path id="bezier20" stroke="rgb(193, 193, 193)" stroke-width="1.33" stroke-linecap="round" stroke-linejoin="round" stroke-miterlimit="4" fill="none" d="M 476,34.4 L 504.8,5.6" />
        <path id="bezier21" stroke="rgb(193, 193, 193)" stroke-width="1.33" stroke-linecap="round" stroke-linejoin="round" stroke-miterlimit="4" fill="none" d="M 476,44 L 514.4,5.6" />
        <path id="bezier22" stroke="rgb(193, 193, 193)" stroke-width="1.33" stroke-linecap="round" stroke-linejoin="round" stroke-miterlimit="4" fill="none" d="M 476,53.6 L 524,5.6" />
        <path id="bezier23" stroke="rgb(193, 193, 193)" stroke-width="1.33" stroke-linecap="round" stroke-linejoin="round" stroke-miterlimit="4" fill="none" d="M 485.6,53.6 L 524,15.2" />
        <path id="bezier24" stroke="rgb(193, 193, 193)" stroke-width="1.33" stroke-linecap="round" stroke-linejoin="round" stroke-miterlimit="4" fill="none" d="M 495.2,53.6 L 524,24.8" />
        <path id="bezier25" stroke="rgb(193, 193, 193)" stroke-width="1.33" stroke-linecap="round" stroke-linejoin="round" stroke-miterlimit="4" fill="none" d="M 504.8,53.6 L 524,34.4" />
        <path id="bezier26" stroke="rgb(193, 193, 193)" stroke-width="1.33" stroke-linecap="round" stroke-linejoin="round" stroke-miterlimit="4" fill="none" d="M 514.4,53.6 L 524,44" />
    </g>
    <rect id="rectangle51" stroke="rgb(68, 68, 68)" stroke-width="1.33" fill="none" x="476" y="5.6" width="48" height="48" />
    <rect id="rectangle4" stroke="none" fill="none" x="24" y="19" width="47" height="32" />
    <text fill="rgb(68, 68, 68)" font-family="Varela, sans-serif" font-size="16" x="42.48" y="19">
        <tspan x="42.48" y="35">0</tspan>
    </text>
    <rect id="rectangle7" stroke="none" fill="none" x="72" y="19" width="47" height="32" />
    <text fill="rgb(68, 68, 68)" font-family="Varela, sans-serif" font-size="16" x="90.48" y="19">
        <tspan x="90.48" y="35">1</tspan>
    </text>
    <rect id="rectangle10" stroke="none" fill="none" x="120" y="19" width="48" height="32" />
    <text fill="rgb(68, 68, 68)" font-family="Varela, sans-serif" font-size="16" x="138.98" y="19">
        <tspan x="138.98" y="35">1</tspan>
    </text>
    <rect id="rectangle13" stroke="none" fill="none" x="168" y="19" width="47" height="32" />
    <text fill="rgb(68, 68, 68)" font-family="Varela, sans-serif" font-size="16" x="186.48" y="19">
        <tspan x="186.48" y="35">2</tspan>
    </text>
    <rect id="rectangle16" stroke="none" fill="none" x="216" y="19" width="48" height="32" />
    <text fill="rgb(68, 68, 68)" font-family="Varela, sans-serif" font-size="16" x="234.98" y="19">
        <tspan x="234.98" y="35">3</tspan>
    </text>
    <rect id="rectangle19" stroke="none" fill="none" x="264" y="19" width="47" height="32" />
    <text fill="rgb(68, 68, 68)" font-family="Varela, sans-serif" font-size="16" x="282.48" y="19">
        <tspan x="282.48" y="35">5</tspan>
    </text>
    <rect id="rectangle22" stroke="none" fill="none" x="312" y="19" width="48" height="32" />
    <text fill="rgb(68, 68, 68)" font-family="Varela, sans-serif" font-size="16" x="330.98" y="19">
        <tspan x="330.98" y="35">8</tspan>
    </text>
    <rect id="rectangle23" stroke="none" fill="none" x="25" y="87" width="179" height="29" />
    <text fill="rgb(68, 68, 68)" font-family="Varela, sans-serif" font-size="14.67" x="42.87" y="87">
        <tspan x="42.87" y="102">_(fibs).difference(even)</tspan>
    </text>
    <rect id="rectangle34" stroke="none" fill="none" x="217" y="87" width="47" height="32" />
    <text fill="rgb(68, 68, 68)" font-family="Varela, sans-serif" font-size="16" x="235.48" y="87">
        <tspan x="235.48" y="103">1</tspan>
    </text>
    <rect id="rectangle35" stroke="none" fill="none" x="265" y="87" width="48" height="32" />
    <text fill="rgb(68, 68, 68)" font-family="Varela, sans-serif" font-size="16" x="283.98" y="87">
        <tspan x="283.98" y="103">1</tspan>
    </text>
    <rect id="rectangle36" stroke="none" fill="none" x="314" y="87" width="46" height="32" />
    <text fill="rgb(68, 68, 68)" font-family="Varela, sans-serif" font-size="16" x="331.98" y="87">
        <tspan x="331.98" y="103">3</tspan>
    </text>
    <rect id="rectangle37" stroke="none" fill="none" x="361" y="87" width="48" height="32" />
    <text fill="rgb(68, 68, 68)" font-family="Varela, sans-serif" font-size="16" x="379.98" y="87">
        <tspan x="379.98" y="103">5</tspan>
    </text>
    <rect id="rectangle40" stroke="none" fill="none" x="522" y="19" width="50" height="32" />
    <text fill="rgb(68, 68, 68)" font-family="Varela, sans-serif" font-size="16" x="541.98" y="19">
        <tspan x="541.98" y="35">6</tspan>
    </text>
    <rect id="rectangle43" stroke="none" fill="none" x="380" y="19" width="47" height="32" />
    <text fill="rgb(68, 68, 68)" font-family="Varela, sans-serif" font-size="16" x="398.48" y="19">
        <tspan x="398.48" y="35">0</tspan>
    </text>
    <rect id="rectangle46" stroke="none" fill="none" x="428" y="19" width="47" height="32" />
    <text fill="rgb(68, 68, 68)" font-family="Varela, sans-serif" font-size="16" x="446.48" y="19">
        <tspan x="446.48" y="35">2</tspan>
    </text>
    <rect id="rectangle49" stroke="none" fill="none" x="571" y="19" width="49" height="32" />
    <text fill="rgb(68, 68, 68)" font-family="Varela, sans-serif" font-size="16" x="590.48" y="19">
        <tspan x="590.48" y="35">8</tspan>
    </text>
    <rect id="rectangle52" stroke="none" fill="none" x="476" y="19" width="47" height="32" />
    <text fill="rgb(68, 68, 68)" font-family="Varela, sans-serif" font-size="16" x="494.48" y="19">
        <tspan x="494.48" y="35">4</tspan>
    </text>
</svg>
