<?xml version="1.0" encoding="UTF-8"?>
<!DOCTYPE svg PUBLIC "-//W3C//DTD SVG 1.1//EN" "http://www.w3.org/Graphics/SVG/1.1/DTD/svg11.dtd">
<svg version="1.1" xmlns="http://www.w3.org/2000/svg" xmlns:xlink="http://www.w3.org/1999/xlink" width="600" height="66"  xml:space="preserve">
    <defs>
        <filter id="shadow-outer" filterUnits="userSpaceOnUse">
            <feGaussianBlur stdDeviation="2.5" />
            <feOffset dx="0.1" dy="3.1" result="blur" />
            <feFlood flood-color="rgb(0, 0, 0)" flood-opacity="0.5" />
            <feComposite in2="blur" operator="in" result="colorShadow" />
            <feComposite in="SourceGraphic" in2="colorShadow" operator="over" />
        </filter>
    </defs>
    <rect id="rectangle2" stroke="none" fill="rgb(193, 193, 193)" filter="url(#shadow-outer)" x="150.33" y="6.67" width="48" height="48" />
    <rect id="rectangle3" stroke="rgb(68, 68, 68)" stroke-width="1.33" fill="none" x="150.33" y="6.67" width="48" height="48" />
    <path id="bezier" stroke="none" fill="rgb(193, 193, 193)" filter="url(#shadow-outer)" d="M 198.33,6.67 L 246.33,6.67 246.33,54.67 198.33,54.67 198.33,6.67 Z M 198.33,6.67" />
    <path id="bezier2" stroke="rgb(68, 68, 68)" stroke-width="1.33" stroke-linecap="round" stroke-linejoin="round" stroke-miterlimit="4" fill="none" d="M 198.33,6.67 L 246.33,6.67 246.33,54.67 198.33,54.67 198.33,6.67 Z M 198.33,6.67" />
    <rect id="rectangle6" stroke="none" fill="rgb(193, 193, 193)" filter="url(#shadow-outer)" x="246.33" y="6.67" width="48" height="48" />
    <rect id="rectangle7" stroke="rgb(68, 68, 68)" stroke-width="1.33" fill="none" x="246.33" y="6.67" width="48" height="48" />
    <rect id="rectangle9" stroke="none" fill="rgb(193, 193, 193)" filter="url(#shadow-outer)" x="294.33" y="6.67" width="48" height="48" />
    <rect id="rectangle10" stroke="rgb(68, 68, 68)" stroke-width="1.33" fill="none" x="294.33" y="6.67" width="48" height="48" />
    <rect id="rectangle12" stroke="none" fill="rgb(193, 193, 193)" filter="url(#shadow-outer)" x="342.33" y="6.67" width="48" height="48" />
    <rect id="rectangle13" stroke="rgb(68, 68, 68)" stroke-width="1.33" fill="none" x="342.33" y="6.67" width="48" height="48" />
    <rect id="rectangle15" stroke="none" fill="rgb(193, 193, 193)" filter="url(#shadow-outer)" x="390.33" y="6.67" width="48" height="48" />
    <rect id="rectangle16" stroke="rgb(68, 68, 68)" stroke-width="1.33" fill="none" x="390.33" y="6.67" width="48" height="48" />
    <path id="bezier3" stroke="none" fill="rgb(255, 255, 255)" filter="url(#shadow-outer)" d="M 438.33,6.67 L 486.33,6.67 486.33,54.67 438.33,54.67 438.33,6.67 Z M 438.33,6.67" />
    <path id="bezier4" stroke="rgb(68, 68, 68)" stroke-width="1.33" stroke-linecap="round" stroke-linejoin="round" stroke-miterlimit="4" fill="none" d="M 438.33,6.67 L 486.33,6.67 486.33,54.67 438.33,54.67 438.33,6.67 Z M 438.33,6.67" />
    <rect id="rectangle19" stroke="none" fill="rgb(255, 255, 255)" filter="url(#shadow-outer)" x="486.33" y="6.67" width="48" height="48" />
    <rect id="rectangle20" stroke="rgb(68, 68, 68)" stroke-width="1.33" fill="none" x="486.33" y="6.67" width="48" height="48" />
    <rect id="rectangle22" stroke="none" fill="rgb(255, 255, 255)" filter="url(#shadow-outer)" x="534.33" y="6.67" width="48" height="48" />
    <rect id="rectangle23" stroke="rgb(68, 68, 68)" stroke-width="1.33" fill="none" x="534.33" y="6.67" width="48" height="48" />
    <rect id="rectangle4" stroke="none" fill="none" x="150" y="20" width="48" height="32" />
    <text fill="rgb(68, 68, 68)" font-family="Varela, sans-serif" font-size="16" x="168.98" y="20">
        <tspan x="168.98" y="36">1</tspan>
    </text>
    <rect id="rectangle5" stroke="none" fill="none" x="198" y="20" width="48" height="32" />
    <text fill="rgb(68, 68, 68)" font-family="Varela, sans-serif" font-size="16" x="216.98" y="20">
        <tspan x="216.98" y="36">2</tspan>
    </text>
    <rect id="rectangle8" stroke="none" fill="none" x="246" y="20" width="48" height="32" />
    <text fill="rgb(68, 68, 68)" font-family="Varela, sans-serif" font-size="16" x="264.98" y="20">
        <tspan x="264.98" y="36">3</tspan>
    </text>
    <rect id="rectangle11" stroke="none" fill="none" x="294" y="20" width="48" height="32" />
    <text fill="rgb(68, 68, 68)" font-family="Varela, sans-serif" font-size="16" x="312.98" y="20">
        <tspan x="312.98" y="36">4</tspan>
    </text>
    <rect id="rectangle14" stroke="none" fill="none" x="342" y="20" width="48" height="32" />
    <text fill="rgb(68, 68, 68)" font-family="Varela, sans-serif" font-size="16" x="360.98" y="20">
        <tspan x="360.98" y="36">5</tspan>
    </text>
    <rect id="rectangle17" stroke="none" fill="none" x="390" y="20" width="48" height="32" />
    <text fill="rgb(68, 68, 68)" font-family="Varela, sans-serif" font-size="16" x="408.98" y="20">
        <tspan x="408.98" y="36">6</tspan>
    </text>
    <rect id="rectangle18" stroke="none" fill="none" x="438" y="20" width="48" height="32" />
    <text fill="rgb(68, 68, 68)" font-family="Varela, sans-serif" font-size="16" x="456.98" y="20">
        <tspan x="456.98" y="36">7</tspan>
    </text>
    <rect id="rectangle21" stroke="none" fill="none" x="486" y="20" width="48" height="32" />
    <text fill="rgb(68, 68, 68)" font-family="Varela, sans-serif" font-size="16" x="504.98" y="20">
        <tspan x="504.98" y="36">8</tspan>
    </text>
    <rect id="rectangle24" stroke="none" fill="none" x="534" y="20" width="48" height="32" />
    <text fill="rgb(68, 68, 68)" font-family="Varela, sans-serif" font-size="16" x="552.98" y="20">
        <tspan x="552.98" y="36">9</tspan>
    </text>
    <rect id="rectangle25" stroke="none" fill="none" x="0" y="21" width="115" height="29" />
    <text fill="rgb(68, 68, 68)" font-family="Varela, sans-serif" font-size="14.67" x="17.11" y="21">
        <tspan x="17.11" y="36">_(arr).initial(3)</tspan>
    </text>
</svg>
