<?xml version="1.0" encoding="UTF-8"?>
<!DOCTYPE svg PUBLIC "-//W3C//DTD SVG 1.1//EN" "http://www.w3.org/Graphics/SVG/1.1/DTD/svg11.dtd">
<svg version="1.1" xmlns="http://www.w3.org/2000/svg" xmlns:xlink="http://www.w3.org/1999/xlink" width="600" height="54"  xml:space="preserve">
    <defs>
        <filter id="shadow-outer" filterUnits="userSpaceOnUse">
            <feGaussianBlur stdDeviation="2.5" />
            <feOffset dx="0.1" dy="3.1" result="blur" />
            <feFlood flood-color="rgb(0, 0, 0)" flood-opacity="0.5" />
            <feComposite in2="blur" operator="in" result="colorShadow" />
            <feComposite in="SourceGraphic" in2="colorShadow" operator="over" />
        </filter>
    </defs>
    <path id="bezier" stroke="none" fill="rgb(255, 255, 255)" filter="url(#shadow-outer)" d="M 150.33,6.67 L 198.33,6.67 198.33,45.07 150.33,45.07 150.33,6.67 Z M 150.33,6.67" />
    <path id="bezier2" stroke="rgb(68, 68, 68)" stroke-width="1.33" stroke-linecap="round" stroke-linejoin="round" stroke-miterlimit="4" fill="none" d="M 150.33,6.67 L 198.33,6.67 198.33,45.07 150.33,45.07 150.33,6.67 Z M 150.33,6.67" />
    <path id="bezier3" stroke="none" fill="rgb(255, 255, 255)" filter="url(#shadow-outer)" d="M 198.33,6.67 L 255.93,6.67 255.93,45.07 198.33,45.07 198.33,6.67 Z M 198.33,6.67" />
    <path id="bezier4" stroke="rgb(68, 68, 68)" stroke-width="1.33" stroke-linecap="round" stroke-linejoin="round" stroke-miterlimit="4" fill="none" d="M 198.33,6.67 L 255.93,6.67 255.93,45.07 198.33,45.07 198.33,6.67 Z M 198.33,6.67" />
    <path id="bezier5" stroke="none" fill="rgb(255, 255, 255)" filter="url(#shadow-outer)" d="M 255.93,6.67 L 323.13,6.67 323.13,45.07 255.93,45.07 255.93,6.67 Z M 255.93,6.67" />
    <path id="bezier6" stroke="rgb(68, 68, 68)" stroke-width="1.33" stroke-linecap="round" stroke-linejoin="round" stroke-miterlimit="4" fill="none" d="M 255.93,6.67 L 323.13,6.67 323.13,45.07 255.93,45.07 255.93,6.67 Z M 255.93,6.67" />
    <path id="bezier7" stroke="none" fill="rgb(255, 255, 255)" filter="url(#shadow-outer)" d="M 323.13,6.67 L 399.93,6.67 399.93,45.07 323.13,45.07 323.13,6.67 Z M 323.13,6.67" />
    <path id="bezier8" stroke="rgb(68, 68, 68)" stroke-width="1.33" stroke-linecap="round" stroke-linejoin="round" stroke-miterlimit="4" fill="none" d="M 323.13,6.67 L 399.93,6.67 399.93,45.07 323.13,45.07 323.13,6.67 Z M 323.13,6.67" />
    <rect id="rectangle2" stroke="none" fill="none" x="150" y="16" width="48" height="27" />
    <text fill="rgb(68, 68, 68)" font-family="Varela, sans-serif" font-size="13.33" x="156.36" y="16">
        <tspan x="156.36" y="30">“size”</tspan>
    </text>
    <rect id="rectangle6" stroke="none" fill="none" x="198" y="16" width="58" height="27" />
    <text fill="rgb(68, 68, 68)" font-family="Varela, sans-serif" font-size="13.33" x="205.43" y="16">
        <tspan x="205.43" y="30">“crust”</tspan>
    </text>
    <rect id="rectangle9" stroke="none" fill="none" x="256" y="16" width="67" height="27" />
    <text fill="rgb(68, 68, 68)" font-family="Varela, sans-serif" font-size="13.33" x="261.73" y="16">
        <tspan x="261.73" y="30">“cheese”</tspan>
    </text>
    <rect id="rectangle12" stroke="none" fill="none" x="323" y="16" width="77" height="27" />
    <text fill="rgb(68, 68, 68)" font-family="Varela, sans-serif" font-size="13.33" x="327.58" y="16">
        <tspan x="327.58" y="30">“toppings”</tspan>
    </text>
    <rect id="rectangle13" stroke="none" fill="none" x="35" y="18" width="100" height="24" />
    <text fill="rgb(68, 68, 68)" font-family="Varela, sans-serif" font-size="12" x="54.82" y="18">
        <tspan x="54.82" y="30">_(pizza).keys()</tspan>
    </text>
</svg>
