<?xml version="1.0" encoding="UTF-8"?>
<!DOCTYPE svg PUBLIC "-//W3C//DTD SVG 1.1//EN" "http://www.w3.org/Graphics/SVG/1.1/DTD/svg11.dtd">
<svg version="1.1" xmlns="http://www.w3.org/2000/svg" xmlns:xlink="http://www.w3.org/1999/xlink" width="600" height="66"  xml:space="preserve">
    <defs>
        <filter id="shadow-outer" filterUnits="userSpaceOnUse">
            <feGaussianBlur stdDeviation="2.5" />
            <feOffset dx="0.1" dy="3.1" result="blur" />
            <feFlood flood-color="rgb(0, 0, 0)" flood-opacity="0.5" />
            <feComposite in2="blur" operator="in" result="colorShadow" />
            <feComposite in="SourceGraphic" in2="colorShadow" operator="over" />
        </filter>
    </defs>
    <rect id="rectangle2" stroke="none" fill="rgb(193, 193, 193)" filter="url(#shadow-outer)" x="151" y="6.67" width="48" height="48" />
    <rect id="rectangle3" stroke="rgb(68, 68, 68)" stroke-width="1.33" fill="none" x="151" y="6.67" width="48" height="48" />
    <rect id="rectangle5" stroke="none" fill="rgb(193, 193, 193)" filter="url(#shadow-outer)" x="199" y="6.67" width="48" height="48" />
    <rect id="rectangle6" stroke="rgb(68, 68, 68)" stroke-width="1.33" fill="none" x="199" y="6.67" width="48" height="48" />
    <rect id="rectangle8" stroke="none" fill="rgb(193, 193, 193)" filter="url(#shadow-outer)" x="247" y="6.67" width="48" height="48" />
    <rect id="rectangle9" stroke="rgb(68, 68, 68)" stroke-width="1.33" fill="none" x="247" y="6.67" width="48" height="48" />
    <rect id="rectangle11" stroke="none" fill="rgb(255, 255, 255)" filter="url(#shadow-outer)" x="295" y="6.67" width="48" height="48" />
    <rect id="rectangle12" stroke="rgb(68, 68, 68)" stroke-width="1.33" fill="none" x="295" y="6.67" width="48" height="48" />
    <rect id="rectangle14" stroke="none" fill="rgb(255, 255, 255)" filter="url(#shadow-outer)" x="343" y="6.67" width="48" height="48" />
    <rect id="rectangle15" stroke="rgb(68, 68, 68)" stroke-width="1.33" fill="none" x="343" y="6.67" width="48" height="48" />
    <rect id="rectangle17" stroke="none" fill="rgb(255, 255, 255)" filter="url(#shadow-outer)" x="391" y="6.67" width="48" height="48" />
    <rect id="rectangle18" stroke="rgb(68, 68, 68)" stroke-width="1.33" fill="none" x="391" y="6.67" width="48" height="48" />
    <rect id="rectangle20" stroke="none" fill="rgb(255, 255, 255)" filter="url(#shadow-outer)" x="439" y="6.67" width="48" height="48" />
    <rect id="rectangle21" stroke="rgb(68, 68, 68)" stroke-width="1.33" fill="none" x="439" y="6.67" width="48" height="48" />
    <rect id="rectangle23" stroke="none" fill="rgb(255, 255, 255)" filter="url(#shadow-outer)" x="487" y="6.67" width="48" height="48" />
    <rect id="rectangle24" stroke="rgb(68, 68, 68)" stroke-width="1.33" fill="none" x="487" y="6.67" width="48" height="48" />
    <rect id="rectangle26" stroke="none" fill="rgb(255, 255, 255)" filter="url(#shadow-outer)" x="535" y="6.67" width="48" height="48" />
    <rect id="rectangle27" stroke="rgb(68, 68, 68)" stroke-width="1.33" fill="none" x="535" y="6.67" width="48" height="48" />
    <rect id="rectangle4" stroke="none" fill="none" x="151" y="20" width="47" height="32" />
    <text fill="rgb(68, 68, 68)" font-family="Varela, sans-serif" font-size="16" x="169.48" y="20">
        <tspan x="169.48" y="36">1</tspan>
    </text>
    <rect id="rectangle7" stroke="none" fill="none" x="199" y="20" width="47" height="32" />
    <text fill="rgb(68, 68, 68)" font-family="Varela, sans-serif" font-size="16" x="217.48" y="20">
        <tspan x="217.48" y="36">2</tspan>
    </text>
    <rect id="rectangle10" stroke="none" fill="none" x="247" y="20" width="47" height="32" />
    <text fill="rgb(68, 68, 68)" font-family="Varela, sans-serif" font-size="16" x="265.48" y="20">
        <tspan x="265.48" y="36">3</tspan>
    </text>
    <rect id="rectangle13" stroke="none" fill="none" x="295" y="20" width="47" height="32" />
    <text fill="rgb(68, 68, 68)" font-family="Varela, sans-serif" font-size="16" x="313.48" y="20">
        <tspan x="313.48" y="36">4</tspan>
    </text>
    <rect id="rectangle16" stroke="none" fill="none" x="343" y="20" width="47" height="32" />
    <text fill="rgb(68, 68, 68)" font-family="Varela, sans-serif" font-size="16" x="361.48" y="20">
        <tspan x="361.48" y="36">5</tspan>
    </text>
    <rect id="rectangle19" stroke="none" fill="none" x="391" y="20" width="47" height="32" />
    <text fill="rgb(68, 68, 68)" font-family="Varela, sans-serif" font-size="16" x="409.48" y="20">
        <tspan x="409.48" y="36">6</tspan>
    </text>
    <rect id="rectangle22" stroke="none" fill="none" x="439" y="20" width="46" height="32" />
    <text fill="rgb(68, 68, 68)" font-family="Varela, sans-serif" font-size="16" x="456.98" y="20">
        <tspan x="456.98" y="36">7</tspan>
    </text>
    <rect id="rectangle25" stroke="none" fill="none" x="486" y="20" width="48" height="32" />
    <text fill="rgb(68, 68, 68)" font-family="Varela, sans-serif" font-size="16" x="504.98" y="20">
        <tspan x="504.98" y="36">8</tspan>
    </text>
    <rect id="rectangle28" stroke="none" fill="none" x="534" y="20" width="49" height="32" />
    <text fill="rgb(68, 68, 68)" font-family="Varela, sans-serif" font-size="16" x="553.48" y="20">
        <tspan x="553.48" y="36">9</tspan>
    </text>
    <rect id="rectangle29" stroke="none" fill="none" x="0" y="21" width="116" height="29" />
    <text fill="rgb(68, 68, 68)" font-family="Varela, sans-serif" font-size="14.67" x="28.47" y="21">
        <tspan x="28.47" y="36">_(arr).first(3)</tspan>
    </text>
</svg>
